<svg xmlns="http://www.w3.org/2000/svg" xmlns:xlink="http://www.w3.org/1999/xlink" width="500" zoomAndPan="magnify" viewBox="0 0 375 374.999991" height="500" preserveAspectRatio="xMidYMid meet" version="1.0"><defs><g/></defs><rect x="-37.5" width="450" fill="#ffffff" y="-37.499999" height="449.999989" fill-opacity="1"/><rect x="-37.5" width="450" fill="#ffffff" y="-37.499999" height="449.999989" fill-opacity="1"/><g fill="#545454" fill-opacity="1"><g transform="translate(0.0000045, 120.094994)"><g><path d="M 8.984375 0.203125 C 7.578125 0.203125 6.304688 -0.0351562 5.171875 -0.515625 C 4.046875 -1.003906 3.15625 -1.703125 2.5 -2.609375 C 1.84375 -3.515625 1.503906 -4.585938 1.484375 -5.828125 L 5.828125 -5.828125 C 5.890625 -4.992188 6.1875 -4.332031 6.71875 -3.84375 C 7.25 -3.363281 7.976562 -3.125 8.90625 -3.125 C 9.851562 -3.125 10.597656 -3.351562 11.140625 -3.8125 C 11.679688 -4.269531 11.953125 -4.863281 11.953125 -5.59375 C 11.953125 -6.195312 11.765625 -6.691406 11.390625 -7.078125 C 11.023438 -7.460938 10.566406 -7.765625 10.015625 -7.984375 C 9.460938 -8.210938 8.707031 -8.460938 7.75 -8.734375 C 6.425781 -9.117188 5.351562 -9.5 4.53125 -9.875 C 3.71875 -10.25 3.015625 -10.816406 2.421875 -11.578125 C 1.828125 -12.347656 1.53125 -13.367188 1.53125 -14.640625 C 1.53125 -15.835938 1.828125 -16.878906 2.421875 -17.765625 C 3.023438 -18.660156 3.867188 -19.34375 4.953125 -19.8125 C 6.035156 -20.289062 7.273438 -20.53125 8.671875 -20.53125 C 10.753906 -20.53125 12.445312 -20.019531 13.75 -19 C 15.0625 -17.988281 15.785156 -16.578125 15.921875 -14.765625 L 11.453125 -14.765625 C 11.410156 -15.460938 11.113281 -16.035156 10.5625 -16.484375 C 10.019531 -16.941406 9.289062 -17.171875 8.375 -17.171875 C 7.582031 -17.171875 6.945312 -16.96875 6.46875 -16.5625 C 6 -16.15625 5.765625 -15.566406 5.765625 -14.796875 C 5.765625 -14.253906 5.941406 -13.800781 6.296875 -13.4375 C 6.660156 -13.082031 7.109375 -12.789062 7.640625 -12.5625 C 8.171875 -12.34375 8.921875 -12.085938 9.890625 -11.796875 C 11.203125 -11.410156 12.273438 -11.023438 13.109375 -10.640625 C 13.941406 -10.253906 14.65625 -9.675781 15.25 -8.90625 C 15.851562 -8.132812 16.15625 -7.117188 16.15625 -5.859375 C 16.15625 -4.773438 15.875 -3.769531 15.3125 -2.84375 C 14.75 -1.914062 13.925781 -1.175781 12.84375 -0.625 C 11.757812 -0.0703125 10.472656 0.203125 8.984375 0.203125 Z M 8.984375 0.203125 "/></g></g></g><g fill="#545454" fill-opacity="1"><g transform="translate(17.656234, 120.094994)"><g><path d="M 16.9375 -8.375 C 16.9375 -7.800781 16.894531 -7.28125 16.8125 -6.8125 L 5.078125 -6.8125 C 5.171875 -5.65625 5.570312 -4.75 6.28125 -4.09375 C 7 -3.4375 7.882812 -3.109375 8.9375 -3.109375 C 10.4375 -3.109375 11.507812 -3.753906 12.15625 -5.046875 L 16.53125 -5.046875 C 16.0625 -3.492188 15.171875 -2.21875 13.859375 -1.21875 C 12.546875 -0.226562 10.929688 0.265625 9.015625 0.265625 C 7.472656 0.265625 6.085938 -0.078125 4.859375 -0.765625 C 3.628906 -1.453125 2.671875 -2.421875 1.984375 -3.671875 C 1.296875 -4.929688 0.953125 -6.382812 0.953125 -8.03125 C 0.953125 -9.695312 1.289062 -11.15625 1.96875 -12.40625 C 2.644531 -13.664062 3.59375 -14.632812 4.8125 -15.3125 C 6.03125 -15.988281 7.429688 -16.328125 9.015625 -16.328125 C 10.546875 -16.328125 11.914062 -16 13.125 -15.34375 C 14.332031 -14.6875 15.269531 -13.753906 15.9375 -12.546875 C 16.601562 -11.335938 16.9375 -9.945312 16.9375 -8.375 Z M 12.734375 -9.546875 C 12.710938 -10.585938 12.332031 -11.421875 11.59375 -12.046875 C 10.863281 -12.671875 9.96875 -12.984375 8.90625 -12.984375 C 7.894531 -12.984375 7.046875 -12.679688 6.359375 -12.078125 C 5.679688 -11.472656 5.265625 -10.628906 5.109375 -9.546875 Z M 12.734375 -9.546875 "/></g></g></g><g fill="#545454" fill-opacity="1"><g transform="translate(35.544401, 120.094994)"><g><path d="M 0.953125 -8.03125 C 0.953125 -9.695312 1.289062 -11.148438 1.96875 -12.390625 C 2.644531 -13.640625 3.582031 -14.609375 4.78125 -15.296875 C 5.976562 -15.984375 7.351562 -16.328125 8.90625 -16.328125 C 10.894531 -16.328125 12.539062 -15.828125 13.84375 -14.828125 C 15.15625 -13.835938 16.03125 -12.441406 16.46875 -10.640625 L 12.09375 -10.640625 C 11.863281 -11.335938 11.472656 -11.882812 10.921875 -12.28125 C 10.367188 -12.675781 9.6875 -12.875 8.875 -12.875 C 7.71875 -12.875 6.800781 -12.453125 6.125 -11.609375 C 5.445312 -10.773438 5.109375 -9.582031 5.109375 -8.03125 C 5.109375 -6.5 5.445312 -5.3125 6.125 -4.46875 C 6.800781 -3.632812 7.71875 -3.21875 8.875 -3.21875 C 10.519531 -3.21875 11.59375 -3.953125 12.09375 -5.421875 L 16.46875 -5.421875 C 16.03125 -3.679688 15.148438 -2.296875 13.828125 -1.265625 C 12.515625 -0.242188 10.875 0.265625 8.90625 0.265625 C 7.351562 0.265625 5.976562 -0.078125 4.78125 -0.765625 C 3.582031 -1.453125 2.644531 -2.414062 1.96875 -3.65625 C 1.289062 -4.90625 0.953125 -6.363281 0.953125 -8.03125 Z M 0.953125 -8.03125 "/></g></g></g><g fill="#545454" fill-opacity="1"><g transform="translate(52.997693, 120.094994)"><g><path d="M 6.0625 -13.578125 C 6.582031 -14.421875 7.257812 -15.082031 8.09375 -15.5625 C 8.9375 -16.050781 9.898438 -16.296875 10.984375 -16.296875 L 10.984375 -12.03125 L 9.921875 -12.03125 C 8.640625 -12.03125 7.675781 -11.726562 7.03125 -11.125 C 6.382812 -10.53125 6.0625 -9.488281 6.0625 -8 L 6.0625 0 L 2 0 L 2 -16.0625 L 6.0625 -16.0625 Z M 6.0625 -13.578125 "/></g></g></g><g fill="#545454" fill-opacity="1"><g transform="translate(64.710537, 120.094994)"><g><path d="M 16.9375 -8.375 C 16.9375 -7.800781 16.894531 -7.28125 16.8125 -6.8125 L 5.078125 -6.8125 C 5.171875 -5.65625 5.570312 -4.75 6.28125 -4.09375 C 7 -3.4375 7.882812 -3.109375 8.9375 -3.109375 C 10.4375 -3.109375 11.507812 -3.753906 12.15625 -5.046875 L 16.53125 -5.046875 C 16.0625 -3.492188 15.171875 -2.21875 13.859375 -1.21875 C 12.546875 -0.226562 10.929688 0.265625 9.015625 0.265625 C 7.472656 0.265625 6.085938 -0.078125 4.859375 -0.765625 C 3.628906 -1.453125 2.671875 -2.421875 1.984375 -3.671875 C 1.296875 -4.929688 0.953125 -6.382812 0.953125 -8.03125 C 0.953125 -9.695312 1.289062 -11.15625 1.96875 -12.40625 C 2.644531 -13.664062 3.59375 -14.632812 4.8125 -15.3125 C 6.03125 -15.988281 7.429688 -16.328125 9.015625 -16.328125 C 10.546875 -16.328125 11.914062 -16 13.125 -15.34375 C 14.332031 -14.6875 15.269531 -13.753906 15.9375 -12.546875 C 16.601562 -11.335938 16.9375 -9.945312 16.9375 -8.375 Z M 12.734375 -9.546875 C 12.710938 -10.585938 12.332031 -11.421875 11.59375 -12.046875 C 10.863281 -12.671875 9.96875 -12.984375 8.90625 -12.984375 C 7.894531 -12.984375 7.046875 -12.679688 6.359375 -12.078125 C 5.679688 -11.472656 5.265625 -10.628906 5.109375 -9.546875 Z M 12.734375 -9.546875 "/></g></g></g><g fill="#545454" fill-opacity="1"><g transform="translate(82.598704, 120.094994)"><g><path d="M 6.734375 -12.734375 L 6.734375 -4.953125 C 6.734375 -4.410156 6.863281 -4.019531 7.125 -3.78125 C 7.382812 -3.539062 7.820312 -3.421875 8.4375 -3.421875 L 10.328125 -3.421875 L 10.328125 0 L 7.765625 0 C 4.347656 0 2.640625 -1.660156 2.640625 -4.984375 L 2.640625 -12.734375 L 0.71875 -12.734375 L 0.71875 -16.0625 L 2.640625 -16.0625 L 2.640625 -20.03125 L 6.734375 -20.03125 L 6.734375 -16.0625 L 10.328125 -16.0625 L 10.328125 -12.734375 Z M 6.734375 -12.734375 "/></g></g></g><g fill="#545454" fill-opacity="1"><g transform="translate(93.847673, 120.094994)"><g><path d="M 0.953125 -8.09375 C 0.953125 -9.71875 1.273438 -11.15625 1.921875 -12.40625 C 2.578125 -13.664062 3.457031 -14.632812 4.5625 -15.3125 C 5.675781 -15.988281 6.921875 -16.328125 8.296875 -16.328125 C 9.492188 -16.328125 10.539062 -16.082031 11.4375 -15.59375 C 12.332031 -15.113281 13.050781 -14.507812 13.59375 -13.78125 L 13.59375 -16.0625 L 17.6875 -16.0625 L 17.6875 0 L 13.59375 0 L 13.59375 -2.34375 C 13.070312 -1.59375 12.351562 -0.96875 11.4375 -0.46875 C 10.519531 0.0195312 9.460938 0.265625 8.265625 0.265625 C 6.910156 0.265625 5.675781 -0.0820312 4.5625 -0.78125 C 3.457031 -1.476562 2.578125 -2.457031 1.921875 -3.71875 C 1.273438 -4.988281 0.953125 -6.445312 0.953125 -8.09375 Z M 13.59375 -8.03125 C 13.59375 -9.019531 13.398438 -9.863281 13.015625 -10.5625 C 12.628906 -11.269531 12.109375 -11.8125 11.453125 -12.1875 C 10.796875 -12.570312 10.09375 -12.765625 9.34375 -12.765625 C 8.582031 -12.765625 7.882812 -12.578125 7.25 -12.203125 C 6.613281 -11.835938 6.097656 -11.300781 5.703125 -10.59375 C 5.304688 -9.894531 5.109375 -9.0625 5.109375 -8.09375 C 5.109375 -7.125 5.304688 -6.273438 5.703125 -5.546875 C 6.097656 -4.828125 6.617188 -4.273438 7.265625 -3.890625 C 7.910156 -3.503906 8.601562 -3.3125 9.34375 -3.3125 C 10.09375 -3.3125 10.796875 -3.5 11.453125 -3.875 C 12.109375 -4.25 12.628906 -4.785156 13.015625 -5.484375 C 13.398438 -6.191406 13.59375 -7.039062 13.59375 -8.03125 Z M 13.59375 -8.03125 "/></g></g></g><g fill="#545454" fill-opacity="1"><g transform="translate(113.504364, 120.094994)"><g><path d="M 6.0625 -13.578125 C 6.582031 -14.421875 7.257812 -15.082031 8.09375 -15.5625 C 8.9375 -16.050781 9.898438 -16.296875 10.984375 -16.296875 L 10.984375 -12.03125 L 9.921875 -12.03125 C 8.640625 -12.03125 7.675781 -11.726562 7.03125 -11.125 C 6.382812 -10.53125 6.0625 -9.488281 6.0625 -8 L 6.0625 0 L 2 0 L 2 -16.0625 L 6.0625 -16.0625 Z M 6.0625 -13.578125 "/></g></g></g><g fill="#545454" fill-opacity="1"><g transform="translate(125.217208, 120.094994)"><g><path d="M 6.234375 -16.0625 L 6.234375 0 L 2.171875 0 L 2.171875 -16.0625 Z M 7.359375 -20.234375 L 0.703125 -17.203125 L 0.703125 -20.09375 L 7.359375 -23.546875 Z M 7.359375 -20.234375 "/></g></g></g><g fill="#545454" fill-opacity="1"><g transform="translate(133.624942, 120.094994)"><g><path d="M 0.953125 -8.09375 C 0.953125 -9.71875 1.273438 -11.15625 1.921875 -12.40625 C 2.578125 -13.664062 3.457031 -14.632812 4.5625 -15.3125 C 5.675781 -15.988281 6.921875 -16.328125 8.296875 -16.328125 C 9.492188 -16.328125 10.539062 -16.082031 11.4375 -15.59375 C 12.332031 -15.113281 13.050781 -14.507812 13.59375 -13.78125 L 13.59375 -16.0625 L 17.6875 -16.0625 L 17.6875 0 L 13.59375 0 L 13.59375 -2.34375 C 13.070312 -1.59375 12.351562 -0.96875 11.4375 -0.46875 C 10.519531 0.0195312 9.460938 0.265625 8.265625 0.265625 C 6.910156 0.265625 5.675781 -0.0820312 4.5625 -0.78125 C 3.457031 -1.476562 2.578125 -2.457031 1.921875 -3.71875 C 1.273438 -4.988281 0.953125 -6.445312 0.953125 -8.09375 Z M 13.59375 -8.03125 C 13.59375 -9.019531 13.398438 -9.863281 13.015625 -10.5625 C 12.628906 -11.269531 12.109375 -11.8125 11.453125 -12.1875 C 10.796875 -12.570312 10.09375 -12.765625 9.34375 -12.765625 C 8.582031 -12.765625 7.882812 -12.578125 7.25 -12.203125 C 6.613281 -11.835938 6.097656 -11.300781 5.703125 -10.59375 C 5.304688 -9.894531 5.109375 -9.0625 5.109375 -8.09375 C 5.109375 -7.125 5.304688 -6.273438 5.703125 -5.546875 C 6.097656 -4.828125 6.617188 -4.273438 7.265625 -3.890625 C 7.910156 -3.503906 8.601562 -3.3125 9.34375 -3.3125 C 10.09375 -3.3125 10.796875 -3.5 11.453125 -3.875 C 12.109375 -4.25 12.628906 -4.785156 13.015625 -5.484375 C 13.398438 -6.191406 13.59375 -7.039062 13.59375 -8.03125 Z M 13.59375 -8.03125 "/></g></g></g><g fill="#545454" fill-opacity="1"><g transform="translate(153.281633, 120.094994)"><g/></g></g><g fill="#545454" fill-opacity="1"><g transform="translate(160.181767, 120.094994)"><g><path d="M 0.953125 -8.09375 C 0.953125 -9.71875 1.273438 -11.15625 1.921875 -12.40625 C 2.578125 -13.664062 3.460938 -14.632812 4.578125 -15.3125 C 5.703125 -15.988281 6.953125 -16.328125 8.328125 -16.328125 C 9.367188 -16.328125 10.363281 -16.097656 11.3125 -15.640625 C 12.257812 -15.191406 13.015625 -14.585938 13.578125 -13.828125 L 13.578125 -21.453125 L 17.6875 -21.453125 L 17.6875 0 L 13.578125 0 L 13.578125 -2.375 C 13.066406 -1.582031 12.359375 -0.941406 11.453125 -0.453125 C 10.546875 0.0234375 9.492188 0.265625 8.296875 0.265625 C 6.941406 0.265625 5.703125 -0.0820312 4.578125 -0.78125 C 3.460938 -1.476562 2.578125 -2.457031 1.921875 -3.71875 C 1.273438 -4.988281 0.953125 -6.445312 0.953125 -8.09375 Z M 13.59375 -8.03125 C 13.59375 -9.019531 13.398438 -9.863281 13.015625 -10.5625 C 12.628906 -11.269531 12.109375 -11.8125 11.453125 -12.1875 C 10.796875 -12.570312 10.09375 -12.765625 9.34375 -12.765625 C 8.582031 -12.765625 7.882812 -12.578125 7.25 -12.203125 C 6.613281 -11.835938 6.097656 -11.300781 5.703125 -10.59375 C 5.304688 -9.894531 5.109375 -9.0625 5.109375 -8.09375 C 5.109375 -7.125 5.304688 -6.273438 5.703125 -5.546875 C 6.097656 -4.828125 6.617188 -4.273438 7.265625 -3.890625 C 7.910156 -3.503906 8.601562 -3.3125 9.34375 -3.3125 C 10.09375 -3.3125 10.796875 -3.5 11.453125 -3.875 C 12.109375 -4.25 12.628906 -4.785156 13.015625 -5.484375 C 13.398438 -6.191406 13.59375 -7.039062 13.59375 -8.03125 Z M 13.59375 -8.03125 "/></g></g></g><g fill="#545454" fill-opacity="1"><g transform="translate(179.838458, 120.094994)"><g><path d="M 16.9375 -8.375 C 16.9375 -7.800781 16.894531 -7.28125 16.8125 -6.8125 L 5.078125 -6.8125 C 5.171875 -5.65625 5.570312 -4.75 6.28125 -4.09375 C 7 -3.4375 7.882812 -3.109375 8.9375 -3.109375 C 10.4375 -3.109375 11.507812 -3.753906 12.15625 -5.046875 L 16.53125 -5.046875 C 16.0625 -3.492188 15.171875 -2.21875 13.859375 -1.21875 C 12.546875 -0.226562 10.929688 0.265625 9.015625 0.265625 C 7.472656 0.265625 6.085938 -0.078125 4.859375 -0.765625 C 3.628906 -1.453125 2.671875 -2.421875 1.984375 -3.671875 C 1.296875 -4.929688 0.953125 -6.382812 0.953125 -8.03125 C 0.953125 -9.695312 1.289062 -11.15625 1.96875 -12.40625 C 2.644531 -13.664062 3.59375 -14.632812 4.8125 -15.3125 C 6.03125 -15.988281 7.429688 -16.328125 9.015625 -16.328125 C 10.546875 -16.328125 11.914062 -16 13.125 -15.34375 C 14.332031 -14.6875 15.269531 -13.753906 15.9375 -12.546875 C 16.601562 -11.335938 16.9375 -9.945312 16.9375 -8.375 Z M 12.734375 -9.546875 C 12.710938 -10.585938 12.332031 -11.421875 11.59375 -12.046875 C 10.863281 -12.671875 9.96875 -12.984375 8.90625 -12.984375 C 7.894531 -12.984375 7.046875 -12.679688 6.359375 -12.078125 C 5.679688 -11.472656 5.265625 -10.628906 5.109375 -9.546875 Z M 12.734375 -9.546875 "/></g></g></g><g fill="#545454" fill-opacity="1"><g transform="translate(197.726614, 120.094994)"><g/></g></g><g fill="#545454" fill-opacity="1"><g transform="translate(204.62676, 120.094994)"><g><path d="M 24.0625 -20.234375 L 24.0625 0 L 20.015625 0 L 20.015625 -13.171875 L 14.59375 0 L 11.515625 0 L 6.0625 -13.171875 L 6.0625 0 L 2 0 L 2 -20.234375 L 6.609375 -20.234375 L 13.046875 -5.1875 L 19.484375 -20.234375 Z M 24.0625 -20.234375 "/></g></g></g><g fill="#545454" fill-opacity="1"><g transform="translate(230.690723, 120.094994)"><g><path d="M 16.9375 -8.375 C 16.9375 -7.800781 16.894531 -7.28125 16.8125 -6.8125 L 5.078125 -6.8125 C 5.171875 -5.65625 5.570312 -4.75 6.28125 -4.09375 C 7 -3.4375 7.882812 -3.109375 8.9375 -3.109375 C 10.4375 -3.109375 11.507812 -3.753906 12.15625 -5.046875 L 16.53125 -5.046875 C 16.0625 -3.492188 15.171875 -2.21875 13.859375 -1.21875 C 12.546875 -0.226562 10.929688 0.265625 9.015625 0.265625 C 7.472656 0.265625 6.085938 -0.078125 4.859375 -0.765625 C 3.628906 -1.453125 2.671875 -2.421875 1.984375 -3.671875 C 1.296875 -4.929688 0.953125 -6.382812 0.953125 -8.03125 C 0.953125 -9.695312 1.289062 -11.15625 1.96875 -12.40625 C 2.644531 -13.664062 3.59375 -14.632812 4.8125 -15.3125 C 6.03125 -15.988281 7.429688 -16.328125 9.015625 -16.328125 C 10.546875 -16.328125 11.914062 -16 13.125 -15.34375 C 14.332031 -14.6875 15.269531 -13.753906 15.9375 -12.546875 C 16.601562 -11.335938 16.9375 -9.945312 16.9375 -8.375 Z M 12.734375 -9.546875 C 12.710938 -10.585938 12.332031 -11.421875 11.59375 -12.046875 C 10.863281 -12.671875 9.96875 -12.984375 8.90625 -12.984375 C 7.894531 -12.984375 7.046875 -12.679688 6.359375 -12.078125 C 5.679688 -11.472656 5.265625 -10.628906 5.109375 -9.546875 Z M 12.734375 -9.546875 "/></g></g></g><g fill="#545454" fill-opacity="1"><g transform="translate(248.57889, 120.094994)"><g><path d="M 0.953125 -8.09375 C 0.953125 -9.71875 1.273438 -11.15625 1.921875 -12.40625 C 2.578125 -13.664062 3.460938 -14.632812 4.578125 -15.3125 C 5.703125 -15.988281 6.953125 -16.328125 8.328125 -16.328125 C 9.367188 -16.328125 10.363281 -16.097656 11.3125 -15.640625 C 12.257812 -15.191406 13.015625 -14.585938 13.578125 -13.828125 L 13.578125 -21.453125 L 17.6875 -21.453125 L 17.6875 0 L 13.578125 0 L 13.578125 -2.375 C 13.066406 -1.582031 12.359375 -0.941406 11.453125 -0.453125 C 10.546875 0.0234375 9.492188 0.265625 8.296875 0.265625 C 6.941406 0.265625 5.703125 -0.0820312 4.578125 -0.78125 C 3.460938 -1.476562 2.578125 -2.457031 1.921875 -3.71875 C 1.273438 -4.988281 0.953125 -6.445312 0.953125 -8.09375 Z M 13.59375 -8.03125 C 13.59375 -9.019531 13.398438 -9.863281 13.015625 -10.5625 C 12.628906 -11.269531 12.109375 -11.8125 11.453125 -12.1875 C 10.796875 -12.570312 10.09375 -12.765625 9.34375 -12.765625 C 8.582031 -12.765625 7.882812 -12.578125 7.25 -12.203125 C 6.613281 -11.835938 6.097656 -11.300781 5.703125 -10.59375 C 5.304688 -9.894531 5.109375 -9.0625 5.109375 -8.09375 C 5.109375 -7.125 5.304688 -6.273438 5.703125 -5.546875 C 6.097656 -4.828125 6.617188 -4.273438 7.265625 -3.890625 C 7.910156 -3.503906 8.601562 -3.3125 9.34375 -3.3125 C 10.09375 -3.3125 10.796875 -3.5 11.453125 -3.875 C 12.109375 -4.25 12.628906 -4.785156 13.015625 -5.484375 C 13.398438 -6.191406 13.59375 -7.039062 13.59375 -8.03125 Z M 13.59375 -8.03125 "/></g></g></g><g fill="#545454" fill-opacity="1"><g transform="translate(268.235581, 120.094994)"><g><path d="M 4.0625 -17.984375 C 3.34375 -17.984375 2.742188 -18.207031 2.265625 -18.65625 C 1.796875 -19.113281 1.5625 -19.679688 1.5625 -20.359375 C 1.5625 -21.035156 1.796875 -21.597656 2.265625 -22.046875 C 2.742188 -22.503906 3.34375 -22.734375 4.0625 -22.734375 C 4.78125 -22.734375 5.375 -22.503906 5.84375 -22.046875 C 6.3125 -21.597656 6.546875 -21.035156 6.546875 -20.359375 C 6.546875 -19.679688 6.3125 -19.113281 5.84375 -18.65625 C 5.375 -18.207031 4.78125 -17.984375 4.0625 -17.984375 Z M 6.0625 -16.0625 L 6.0625 0 L 2 0 L 2 -16.0625 Z M 6.0625 -16.0625 "/></g></g></g><g fill="#545454" fill-opacity="1"><g transform="translate(276.295403, 120.094994)"><g><path d="M 9.140625 0.265625 C 7.585938 0.265625 6.191406 -0.078125 4.953125 -0.765625 C 3.722656 -1.453125 2.753906 -2.421875 2.046875 -3.671875 C 1.335938 -4.929688 0.984375 -6.382812 0.984375 -8.03125 C 0.984375 -9.675781 1.34375 -11.125 2.0625 -12.375 C 2.789062 -13.632812 3.785156 -14.609375 5.046875 -15.296875 C 6.304688 -15.984375 7.707031 -16.328125 9.25 -16.328125 C 10.800781 -16.328125 12.203125 -15.984375 13.453125 -15.296875 C 14.710938 -14.609375 15.703125 -13.632812 16.421875 -12.375 C 17.148438 -11.125 17.515625 -9.675781 17.515625 -8.03125 C 17.515625 -6.382812 17.140625 -4.929688 16.390625 -3.671875 C 15.648438 -2.421875 14.644531 -1.453125 13.375 -0.765625 C 12.113281 -0.078125 10.703125 0.265625 9.140625 0.265625 Z M 9.140625 -3.28125 C 9.867188 -3.28125 10.554688 -3.457031 11.203125 -3.8125 C 11.859375 -4.164062 12.378906 -4.703125 12.765625 -5.421875 C 13.148438 -6.140625 13.34375 -7.007812 13.34375 -8.03125 C 13.34375 -9.5625 12.941406 -10.734375 12.140625 -11.546875 C 11.335938 -12.367188 10.351562 -12.78125 9.1875 -12.78125 C 8.03125 -12.78125 7.0625 -12.367188 6.28125 -11.546875 C 5.5 -10.734375 5.109375 -9.5625 5.109375 -8.03125 C 5.109375 -6.5 5.488281 -5.320312 6.25 -4.5 C 7.007812 -3.6875 7.972656 -3.28125 9.140625 -3.28125 Z M 9.140625 -3.28125 "/></g></g></g><g fill="#545454" fill-opacity="1"><g transform="translate(0.0000045, 160.594991)"><g><path d="M 14.40625 -3.859375 L 6.34375 -3.859375 L 5.015625 0 L 0.75 0 L 8.03125 -20.265625 L 12.765625 -20.265625 L 20.03125 0 L 15.75 0 Z M 13.3125 -7.109375 L 10.375 -15.578125 L 7.453125 -7.109375 Z M 13.3125 -7.109375 "/></g></g></g><g fill="#545454" fill-opacity="1"><g transform="translate(20.758407, 160.594991)"><g><path d="M 21.953125 -16.296875 C 23.921875 -16.296875 25.507812 -15.691406 26.71875 -14.484375 C 27.925781 -13.273438 28.53125 -11.585938 28.53125 -9.421875 L 28.53125 0 L 24.46875 0 L 24.46875 -8.875 C 24.46875 -10.132812 24.148438 -11.097656 23.515625 -11.765625 C 22.878906 -12.429688 22.007812 -12.765625 20.90625 -12.765625 C 19.800781 -12.765625 18.925781 -12.429688 18.28125 -11.765625 C 17.632812 -11.097656 17.3125 -10.132812 17.3125 -8.875 L 17.3125 0 L 13.25 0 L 13.25 -8.875 C 13.25 -10.132812 12.929688 -11.097656 12.296875 -11.765625 C 11.660156 -12.429688 10.789062 -12.765625 9.6875 -12.765625 C 8.5625 -12.765625 7.675781 -12.429688 7.03125 -11.765625 C 6.382812 -11.097656 6.0625 -10.132812 6.0625 -8.875 L 6.0625 0 L 2 0 L 2 -16.0625 L 6.0625 -16.0625 L 6.0625 -14.125 C 6.582031 -14.800781 7.253906 -15.332031 8.078125 -15.71875 C 8.898438 -16.101562 9.800781 -16.296875 10.78125 -16.296875 C 12.039062 -16.296875 13.160156 -16.03125 14.140625 -15.5 C 15.128906 -14.96875 15.894531 -14.207031 16.4375 -13.21875 C 16.957031 -14.144531 17.71875 -14.890625 18.71875 -15.453125 C 19.71875 -16.015625 20.796875 -16.296875 21.953125 -16.296875 Z M 21.953125 -16.296875 "/></g></g></g><g fill="#545454" fill-opacity="1"><g transform="translate(51.142206, 160.594991)"><g><path d="M 6.0625 -13.71875 C 6.582031 -14.488281 7.300781 -15.113281 8.21875 -15.59375 C 9.132812 -16.082031 10.1875 -16.328125 11.375 -16.328125 C 12.738281 -16.328125 13.976562 -15.988281 15.09375 -15.3125 C 16.207031 -14.632812 17.085938 -13.671875 17.734375 -12.421875 C 18.378906 -11.179688 18.703125 -9.738281 18.703125 -8.09375 C 18.703125 -6.445312 18.378906 -4.988281 17.734375 -3.71875 C 17.085938 -2.457031 16.207031 -1.476562 15.09375 -0.78125 C 13.976562 -0.0820312 12.738281 0.265625 11.375 0.265625 C 10.164062 0.265625 9.113281 0.03125 8.21875 -0.4375 C 7.320312 -0.914062 6.601562 -1.535156 6.0625 -2.296875 L 6.0625 0 L 2 0 L 2 -21.453125 L 6.0625 -21.453125 Z M 14.5625 -8.09375 C 14.5625 -9.0625 14.363281 -9.894531 13.96875 -10.59375 C 13.570312 -11.300781 13.046875 -11.835938 12.390625 -12.203125 C 11.742188 -12.578125 11.046875 -12.765625 10.296875 -12.765625 C 9.554688 -12.765625 8.863281 -12.570312 8.21875 -12.1875 C 7.570312 -11.8125 7.050781 -11.265625 6.65625 -10.546875 C 6.257812 -9.835938 6.0625 -9 6.0625 -8.03125 C 6.0625 -7.0625 6.257812 -6.21875 6.65625 -5.5 C 7.050781 -4.789062 7.570312 -4.25 8.21875 -3.875 C 8.863281 -3.5 9.554688 -3.3125 10.296875 -3.3125 C 11.046875 -3.3125 11.742188 -3.503906 12.390625 -3.890625 C 13.046875 -4.273438 13.570312 -4.820312 13.96875 -5.53125 C 14.363281 -6.25 14.5625 -7.101562 14.5625 -8.09375 Z M 14.5625 -8.09375 "/></g></g></g><g fill="#545454" fill-opacity="1"><g transform="translate(70.798897, 160.594991)"><g><path d="M 4.0625 -17.984375 C 3.34375 -17.984375 2.742188 -18.207031 2.265625 -18.65625 C 1.796875 -19.113281 1.5625 -19.679688 1.5625 -20.359375 C 1.5625 -21.035156 1.796875 -21.597656 2.265625 -22.046875 C 2.742188 -22.503906 3.34375 -22.734375 4.0625 -22.734375 C 4.78125 -22.734375 5.375 -22.503906 5.84375 -22.046875 C 6.3125 -21.597656 6.546875 -21.035156 6.546875 -20.359375 C 6.546875 -19.679688 6.3125 -19.113281 5.84375 -18.65625 C 5.375 -18.207031 4.78125 -17.984375 4.0625 -17.984375 Z M 6.0625 -16.0625 L 6.0625 0 L 2 0 L 2 -16.0625 Z M 6.0625 -16.0625 "/></g></g></g><g fill="#545454" fill-opacity="1"><g transform="translate(78.858718, 160.594991)"><g><path d="M 16.9375 -8.375 C 16.9375 -7.800781 16.894531 -7.28125 16.8125 -6.8125 L 5.078125 -6.8125 C 5.171875 -5.65625 5.570312 -4.75 6.28125 -4.09375 C 7 -3.4375 7.882812 -3.109375 8.9375 -3.109375 C 10.4375 -3.109375 11.507812 -3.753906 12.15625 -5.046875 L 16.53125 -5.046875 C 16.0625 -3.492188 15.171875 -2.21875 13.859375 -1.21875 C 12.546875 -0.226562 10.929688 0.265625 9.015625 0.265625 C 7.472656 0.265625 6.085938 -0.078125 4.859375 -0.765625 C 3.628906 -1.453125 2.671875 -2.421875 1.984375 -3.671875 C 1.296875 -4.929688 0.953125 -6.382812 0.953125 -8.03125 C 0.953125 -9.695312 1.289062 -11.15625 1.96875 -12.40625 C 2.644531 -13.664062 3.59375 -14.632812 4.8125 -15.3125 C 6.03125 -15.988281 7.429688 -16.328125 9.015625 -16.328125 C 10.546875 -16.328125 11.914062 -16 13.125 -15.34375 C 14.332031 -14.6875 15.269531 -13.753906 15.9375 -12.546875 C 16.601562 -11.335938 16.9375 -9.945312 16.9375 -8.375 Z M 12.734375 -9.546875 C 12.710938 -10.585938 12.332031 -11.421875 11.59375 -12.046875 C 10.863281 -12.671875 9.96875 -12.984375 8.90625 -12.984375 C 7.894531 -12.984375 7.046875 -12.679688 6.359375 -12.078125 C 5.679688 -11.472656 5.265625 -10.628906 5.109375 -9.546875 Z M 12.734375 -9.546875 "/></g></g></g><g fill="#545454" fill-opacity="1"><g transform="translate(96.746885, 160.594991)"><g><path d="M 10.90625 -16.296875 C 12.820312 -16.296875 14.367188 -15.691406 15.546875 -14.484375 C 16.722656 -13.273438 17.3125 -11.585938 17.3125 -9.421875 L 17.3125 0 L 13.25 0 L 13.25 -8.875 C 13.25 -10.144531 12.929688 -11.125 12.296875 -11.8125 C 11.660156 -12.5 10.789062 -12.84375 9.6875 -12.84375 C 8.5625 -12.84375 7.675781 -12.5 7.03125 -11.8125 C 6.382812 -11.125 6.0625 -10.144531 6.0625 -8.875 L 6.0625 0 L 2 0 L 2 -16.0625 L 6.0625 -16.0625 L 6.0625 -14.0625 C 6.601562 -14.757812 7.289062 -15.304688 8.125 -15.703125 C 8.96875 -16.097656 9.894531 -16.296875 10.90625 -16.296875 Z M 10.90625 -16.296875 "/></g></g></g><g fill="#545454" fill-opacity="1"><g transform="translate(115.910714, 160.594991)"><g><path d="M 6.734375 -12.734375 L 6.734375 -4.953125 C 6.734375 -4.410156 6.863281 -4.019531 7.125 -3.78125 C 7.382812 -3.539062 7.820312 -3.421875 8.4375 -3.421875 L 10.328125 -3.421875 L 10.328125 0 L 7.765625 0 C 4.347656 0 2.640625 -1.660156 2.640625 -4.984375 L 2.640625 -12.734375 L 0.71875 -12.734375 L 0.71875 -16.0625 L 2.640625 -16.0625 L 2.640625 -20.03125 L 6.734375 -20.03125 L 6.734375 -16.0625 L 10.328125 -16.0625 L 10.328125 -12.734375 Z M 6.734375 -12.734375 "/></g></g></g><g fill="#545454" fill-opacity="1"><g transform="translate(127.159683, 160.594991)"><g><path d="M 16.9375 -8.375 C 16.9375 -7.800781 16.894531 -7.28125 16.8125 -6.8125 L 5.078125 -6.8125 C 5.171875 -5.65625 5.570312 -4.75 6.28125 -4.09375 C 7 -3.4375 7.882812 -3.109375 8.9375 -3.109375 C 10.4375 -3.109375 11.507812 -3.753906 12.15625 -5.046875 L 16.53125 -5.046875 C 16.0625 -3.492188 15.171875 -2.21875 13.859375 -1.21875 C 12.546875 -0.226562 10.929688 0.265625 9.015625 0.265625 C 7.472656 0.265625 6.085938 -0.078125 4.859375 -0.765625 C 3.628906 -1.453125 2.671875 -2.421875 1.984375 -3.671875 C 1.296875 -4.929688 0.953125 -6.382812 0.953125 -8.03125 C 0.953125 -9.695312 1.289062 -11.15625 1.96875 -12.40625 C 2.644531 -13.664062 3.59375 -14.632812 4.8125 -15.3125 C 6.03125 -15.988281 7.429688 -16.328125 9.015625 -16.328125 C 10.546875 -16.328125 11.914062 -16 13.125 -15.34375 C 14.332031 -14.6875 15.269531 -13.753906 15.9375 -12.546875 C 16.601562 -11.335938 16.9375 -9.945312 16.9375 -8.375 Z M 12.734375 -9.546875 C 12.710938 -10.585938 12.332031 -11.421875 11.59375 -12.046875 C 10.863281 -12.671875 9.96875 -12.984375 8.90625 -12.984375 C 7.894531 -12.984375 7.046875 -12.679688 6.359375 -12.078125 C 5.679688 -11.472656 5.265625 -10.628906 5.109375 -9.546875 Z M 12.734375 -9.546875 "/></g></g></g><g fill="#545454" fill-opacity="1"><g transform="translate(0.0000045, 201.094988)"><g><path d="M 9.078125 -20.234375 C 11.203125 -20.234375 13.070312 -19.816406 14.6875 -18.984375 C 16.300781 -18.160156 17.546875 -16.976562 18.421875 -15.4375 C 19.304688 -13.90625 19.75 -12.125 19.75 -10.09375 C 19.75 -8.0625 19.304688 -6.285156 18.421875 -4.765625 C 17.546875 -3.253906 16.300781 -2.082031 14.6875 -1.25 C 13.070312 -0.414062 11.203125 0 9.078125 0 L 2 0 L 2 -20.234375 Z M 8.9375 -3.453125 C 11.0625 -3.453125 12.703125 -4.03125 13.859375 -5.1875 C 15.023438 -6.351562 15.609375 -7.988281 15.609375 -10.09375 C 15.609375 -12.195312 15.023438 -13.84375 13.859375 -15.03125 C 12.703125 -16.21875 11.0625 -16.8125 8.9375 -16.8125 L 6.0625 -16.8125 L 6.0625 -3.453125 Z M 8.9375 -3.453125 "/></g></g></g><g fill="#545454" fill-opacity="1"><g transform="translate(20.787395, 201.094988)"><g><path d="M 16.9375 -8.375 C 16.9375 -7.800781 16.894531 -7.28125 16.8125 -6.8125 L 5.078125 -6.8125 C 5.171875 -5.65625 5.570312 -4.75 6.28125 -4.09375 C 7 -3.4375 7.882812 -3.109375 8.9375 -3.109375 C 10.4375 -3.109375 11.507812 -3.753906 12.15625 -5.046875 L 16.53125 -5.046875 C 16.0625 -3.492188 15.171875 -2.21875 13.859375 -1.21875 C 12.546875 -0.226562 10.929688 0.265625 9.015625 0.265625 C 7.472656 0.265625 6.085938 -0.078125 4.859375 -0.765625 C 3.628906 -1.453125 2.671875 -2.421875 1.984375 -3.671875 C 1.296875 -4.929688 0.953125 -6.382812 0.953125 -8.03125 C 0.953125 -9.695312 1.289062 -11.15625 1.96875 -12.40625 C 2.644531 -13.664062 3.59375 -14.632812 4.8125 -15.3125 C 6.03125 -15.988281 7.429688 -16.328125 9.015625 -16.328125 C 10.546875 -16.328125 11.914062 -16 13.125 -15.34375 C 14.332031 -14.6875 15.269531 -13.753906 15.9375 -12.546875 C 16.601562 -11.335938 16.9375 -9.945312 16.9375 -8.375 Z M 12.734375 -9.546875 C 12.710938 -10.585938 12.332031 -11.421875 11.59375 -12.046875 C 10.863281 -12.671875 9.96875 -12.984375 8.90625 -12.984375 C 7.894531 -12.984375 7.046875 -12.679688 6.359375 -12.078125 C 5.679688 -11.472656 5.265625 -10.628906 5.109375 -9.546875 Z M 12.734375 -9.546875 "/></g></g></g><g fill="#545454" fill-opacity="1"><g transform="translate(38.675562, 201.094988)"><g><path d="M 8.15625 0.265625 C 6.832031 0.265625 5.648438 0.03125 4.609375 -0.4375 C 3.566406 -0.914062 2.738281 -1.5625 2.125 -2.375 C 1.519531 -3.1875 1.1875 -4.085938 1.125 -5.078125 L 5.21875 -5.078125 C 5.300781 -4.453125 5.609375 -3.9375 6.140625 -3.53125 C 6.671875 -3.125 7.332031 -2.921875 8.125 -2.921875 C 8.894531 -2.921875 9.492188 -3.078125 9.921875 -3.390625 C 10.359375 -3.703125 10.578125 -4.097656 10.578125 -4.578125 C 10.578125 -5.097656 10.3125 -5.488281 9.78125 -5.75 C 9.25 -6.007812 8.40625 -6.296875 7.25 -6.609375 C 6.050781 -6.898438 5.066406 -7.195312 4.296875 -7.5 C 3.535156 -7.8125 2.878906 -8.285156 2.328125 -8.921875 C 1.785156 -9.566406 1.515625 -10.429688 1.515625 -11.515625 C 1.515625 -12.398438 1.769531 -13.207031 2.28125 -13.9375 C 2.789062 -14.675781 3.523438 -15.257812 4.484375 -15.6875 C 5.441406 -16.113281 6.566406 -16.328125 7.859375 -16.328125 C 9.773438 -16.328125 11.300781 -15.847656 12.4375 -14.890625 C 13.582031 -13.929688 14.210938 -12.640625 14.328125 -11.015625 L 10.4375 -11.015625 C 10.382812 -11.660156 10.117188 -12.171875 9.640625 -12.546875 C 9.171875 -12.921875 8.539062 -13.109375 7.75 -13.109375 C 7.007812 -13.109375 6.441406 -12.972656 6.046875 -12.703125 C 5.648438 -12.429688 5.453125 -12.054688 5.453125 -11.578125 C 5.453125 -11.035156 5.722656 -10.625 6.265625 -10.34375 C 6.804688 -10.0625 7.644531 -9.773438 8.78125 -9.484375 C 9.945312 -9.191406 10.90625 -8.890625 11.65625 -8.578125 C 12.40625 -8.273438 13.054688 -7.796875 13.609375 -7.140625 C 14.160156 -6.492188 14.445312 -5.640625 14.46875 -4.578125 C 14.46875 -3.648438 14.210938 -2.816406 13.703125 -2.078125 C 13.191406 -1.347656 12.457031 -0.773438 11.5 -0.359375 C 10.539062 0.0546875 9.425781 0.265625 8.15625 0.265625 Z M 8.15625 0.265625 "/></g></g></g><g fill="#545454" fill-opacity="1"><g transform="translate(54.476292, 201.094988)"><g><path d="M 0.953125 -8.09375 C 0.953125 -9.71875 1.273438 -11.15625 1.921875 -12.40625 C 2.578125 -13.664062 3.457031 -14.632812 4.5625 -15.3125 C 5.675781 -15.988281 6.921875 -16.328125 8.296875 -16.328125 C 9.492188 -16.328125 10.539062 -16.082031 11.4375 -15.59375 C 12.332031 -15.113281 13.050781 -14.507812 13.59375 -13.78125 L 13.59375 -16.0625 L 17.6875 -16.0625 L 17.6875 0 L 13.59375 0 L 13.59375 -2.34375 C 13.070312 -1.59375 12.351562 -0.96875 11.4375 -0.46875 C 10.519531 0.0195312 9.460938 0.265625 8.265625 0.265625 C 6.910156 0.265625 5.675781 -0.0820312 4.5625 -0.78125 C 3.457031 -1.476562 2.578125 -2.457031 1.921875 -3.71875 C 1.273438 -4.988281 0.953125 -6.445312 0.953125 -8.09375 Z M 13.59375 -8.03125 C 13.59375 -9.019531 13.398438 -9.863281 13.015625 -10.5625 C 12.628906 -11.269531 12.109375 -11.8125 11.453125 -12.1875 C 10.796875 -12.570312 10.09375 -12.765625 9.34375 -12.765625 C 8.582031 -12.765625 7.882812 -12.578125 7.25 -12.203125 C 6.613281 -11.835938 6.097656 -11.300781 5.703125 -10.59375 C 5.304688 -9.894531 5.109375 -9.0625 5.109375 -8.09375 C 5.109375 -7.125 5.304688 -6.273438 5.703125 -5.546875 C 6.097656 -4.828125 6.617188 -4.273438 7.265625 -3.890625 C 7.910156 -3.503906 8.601562 -3.3125 9.34375 -3.3125 C 10.09375 -3.3125 10.796875 -3.5 11.453125 -3.875 C 12.109375 -4.25 12.628906 -4.785156 13.015625 -5.484375 C 13.398438 -6.191406 13.59375 -7.039062 13.59375 -8.03125 Z M 13.59375 -8.03125 "/></g></g></g><g fill="#545454" fill-opacity="1"><g transform="translate(74.132983, 201.094988)"><g><path d="M 6.0625 -13.578125 C 6.582031 -14.421875 7.257812 -15.082031 8.09375 -15.5625 C 8.9375 -16.050781 9.898438 -16.296875 10.984375 -16.296875 L 10.984375 -12.03125 L 9.921875 -12.03125 C 8.640625 -12.03125 7.675781 -11.726562 7.03125 -11.125 C 6.382812 -10.53125 6.0625 -9.488281 6.0625 -8 L 6.0625 0 L 2 0 L 2 -16.0625 L 6.0625 -16.0625 Z M 6.0625 -13.578125 "/></g></g></g><g fill="#545454" fill-opacity="1"><g transform="translate(85.845827, 201.094988)"><g><path d="M 6.0625 -13.578125 C 6.582031 -14.421875 7.257812 -15.082031 8.09375 -15.5625 C 8.9375 -16.050781 9.898438 -16.296875 10.984375 -16.296875 L 10.984375 -12.03125 L 9.921875 -12.03125 C 8.640625 -12.03125 7.675781 -11.726562 7.03125 -11.125 C 6.382812 -10.53125 6.0625 -9.488281 6.0625 -8 L 6.0625 0 L 2 0 L 2 -16.0625 L 6.0625 -16.0625 Z M 6.0625 -13.578125 "/></g></g></g><g fill="#545454" fill-opacity="1"><g transform="translate(97.558671, 201.094988)"><g><path d="M 9.140625 0.265625 C 7.585938 0.265625 6.191406 -0.078125 4.953125 -0.765625 C 3.722656 -1.453125 2.753906 -2.421875 2.046875 -3.671875 C 1.335938 -4.929688 0.984375 -6.382812 0.984375 -8.03125 C 0.984375 -9.675781 1.34375 -11.125 2.0625 -12.375 C 2.789062 -13.632812 3.785156 -14.609375 5.046875 -15.296875 C 6.304688 -15.984375 7.707031 -16.328125 9.25 -16.328125 C 10.800781 -16.328125 12.203125 -15.984375 13.453125 -15.296875 C 14.710938 -14.609375 15.703125 -13.632812 16.421875 -12.375 C 17.148438 -11.125 17.515625 -9.675781 17.515625 -8.03125 C 17.515625 -6.382812 17.140625 -4.929688 16.390625 -3.671875 C 15.648438 -2.421875 14.644531 -1.453125 13.375 -0.765625 C 12.113281 -0.078125 10.703125 0.265625 9.140625 0.265625 Z M 9.140625 -3.28125 C 9.867188 -3.28125 10.554688 -3.457031 11.203125 -3.8125 C 11.859375 -4.164062 12.378906 -4.703125 12.765625 -5.421875 C 13.148438 -6.140625 13.34375 -7.007812 13.34375 -8.03125 C 13.34375 -9.5625 12.941406 -10.734375 12.140625 -11.546875 C 11.335938 -12.367188 10.351562 -12.78125 9.1875 -12.78125 C 8.03125 -12.78125 7.0625 -12.367188 6.28125 -11.546875 C 5.5 -10.734375 5.109375 -9.5625 5.109375 -8.03125 C 5.109375 -6.5 5.488281 -5.320312 6.25 -4.5 C 7.007812 -3.6875 7.972656 -3.28125 9.140625 -3.28125 Z M 9.140625 -3.28125 "/></g></g></g><g fill="#545454" fill-opacity="1"><g transform="translate(116.055676, 201.094988)"><g><path d="M 6.0625 -21.453125 L 6.0625 0 L 2 0 L 2 -21.453125 Z M 6.0625 -21.453125 "/></g></g></g><g fill="#545454" fill-opacity="1"><g transform="translate(124.115497, 201.094988)"><g><path d="M 6.0625 -21.453125 L 6.0625 0 L 2 0 L 2 -21.453125 Z M 6.0625 -21.453125 "/></g></g></g><g fill="#545454" fill-opacity="1"><g transform="translate(132.175319, 201.094988)"><g><path d="M 9.140625 0.265625 C 7.585938 0.265625 6.191406 -0.078125 4.953125 -0.765625 C 3.722656 -1.453125 2.753906 -2.421875 2.046875 -3.671875 C 1.335938 -4.929688 0.984375 -6.382812 0.984375 -8.03125 C 0.984375 -9.675781 1.34375 -11.125 2.0625 -12.375 C 2.789062 -13.632812 3.785156 -14.609375 5.046875 -15.296875 C 6.304688 -15.984375 7.707031 -16.328125 9.25 -16.328125 C 10.800781 -16.328125 12.203125 -15.984375 13.453125 -15.296875 C 14.710938 -14.609375 15.703125 -13.632812 16.421875 -12.375 C 17.148438 -11.125 17.515625 -9.675781 17.515625 -8.03125 C 17.515625 -6.382812 17.140625 -4.929688 16.390625 -3.671875 C 15.648438 -2.421875 14.644531 -1.453125 13.375 -0.765625 C 12.113281 -0.078125 10.703125 0.265625 9.140625 0.265625 Z M 9.140625 -3.28125 C 9.867188 -3.28125 10.554688 -3.457031 11.203125 -3.8125 C 11.859375 -4.164062 12.378906 -4.703125 12.765625 -5.421875 C 13.148438 -6.140625 13.34375 -7.007812 13.34375 -8.03125 C 13.34375 -9.5625 12.941406 -10.734375 12.140625 -11.546875 C 11.335938 -12.367188 10.351562 -12.78125 9.1875 -12.78125 C 8.03125 -12.78125 7.0625 -12.367188 6.28125 -11.546875 C 5.5 -10.734375 5.109375 -9.5625 5.109375 -8.03125 C 5.109375 -6.5 5.488281 -5.320312 6.25 -4.5 C 7.007812 -3.6875 7.972656 -3.28125 9.140625 -3.28125 Z M 9.140625 -3.28125 "/></g></g></g><g fill="#545454" fill-opacity="1"><g transform="translate(150.672323, 201.094988)"><g/></g></g><g fill="#545454" fill-opacity="1"><g transform="translate(157.572458, 201.094988)"><g><path d="M 8.984375 0.203125 C 7.578125 0.203125 6.304688 -0.0351562 5.171875 -0.515625 C 4.046875 -1.003906 3.15625 -1.703125 2.5 -2.609375 C 1.84375 -3.515625 1.503906 -4.585938 1.484375 -5.828125 L 5.828125 -5.828125 C 5.890625 -4.992188 6.1875 -4.332031 6.71875 -3.84375 C 7.25 -3.363281 7.976562 -3.125 8.90625 -3.125 C 9.851562 -3.125 10.597656 -3.351562 11.140625 -3.8125 C 11.679688 -4.269531 11.953125 -4.863281 11.953125 -5.59375 C 11.953125 -6.195312 11.765625 -6.691406 11.390625 -7.078125 C 11.023438 -7.460938 10.566406 -7.765625 10.015625 -7.984375 C 9.460938 -8.210938 8.707031 -8.460938 7.75 -8.734375 C 6.425781 -9.117188 5.351562 -9.5 4.53125 -9.875 C 3.71875 -10.25 3.015625 -10.816406 2.421875 -11.578125 C 1.828125 -12.347656 1.53125 -13.367188 1.53125 -14.640625 C 1.53125 -15.835938 1.828125 -16.878906 2.421875 -17.765625 C 3.023438 -18.660156 3.867188 -19.34375 4.953125 -19.8125 C 6.035156 -20.289062 7.273438 -20.53125 8.671875 -20.53125 C 10.753906 -20.53125 12.445312 -20.019531 13.75 -19 C 15.0625 -17.988281 15.785156 -16.578125 15.921875 -14.765625 L 11.453125 -14.765625 C 11.410156 -15.460938 11.113281 -16.035156 10.5625 -16.484375 C 10.019531 -16.941406 9.289062 -17.171875 8.375 -17.171875 C 7.582031 -17.171875 6.945312 -16.96875 6.46875 -16.5625 C 6 -16.15625 5.765625 -15.566406 5.765625 -14.796875 C 5.765625 -14.253906 5.941406 -13.800781 6.296875 -13.4375 C 6.660156 -13.082031 7.109375 -12.789062 7.640625 -12.5625 C 8.171875 -12.34375 8.921875 -12.085938 9.890625 -11.796875 C 11.203125 -11.410156 12.273438 -11.023438 13.109375 -10.640625 C 13.941406 -10.253906 14.65625 -9.675781 15.25 -8.90625 C 15.851562 -8.132812 16.15625 -7.117188 16.15625 -5.859375 C 16.15625 -4.773438 15.875 -3.769531 15.3125 -2.84375 C 14.75 -1.914062 13.925781 -1.175781 12.84375 -0.625 C 11.757812 -0.0703125 10.472656 0.203125 8.984375 0.203125 Z M 8.984375 0.203125 "/></g></g></g><g fill="#545454" fill-opacity="1"><g transform="translate(175.228687, 201.094988)"><g><path d="M 17.171875 -16.0625 L 17.171875 0 L 13.078125 0 L 13.078125 -2.03125 C 12.554688 -1.332031 11.875 -0.785156 11.03125 -0.390625 C 10.1875 0.00390625 9.273438 0.203125 8.296875 0.203125 C 7.035156 0.203125 5.921875 -0.0625 4.953125 -0.59375 C 3.992188 -1.125 3.238281 -1.90625 2.6875 -2.9375 C 2.132812 -3.976562 1.859375 -5.210938 1.859375 -6.640625 L 1.859375 -16.0625 L 5.921875 -16.0625 L 5.921875 -7.21875 C 5.921875 -5.945312 6.238281 -4.96875 6.875 -4.28125 C 7.507812 -3.59375 8.378906 -3.25 9.484375 -3.25 C 10.609375 -3.25 11.488281 -3.59375 12.125 -4.28125 C 12.757812 -4.96875 13.078125 -5.945312 13.078125 -7.21875 L 13.078125 -16.0625 Z M 17.171875 -16.0625 "/></g></g></g><g fill="#545454" fill-opacity="1"><g transform="translate(194.392516, 201.094988)"><g><path d="M 8.15625 0.265625 C 6.832031 0.265625 5.648438 0.03125 4.609375 -0.4375 C 3.566406 -0.914062 2.738281 -1.5625 2.125 -2.375 C 1.519531 -3.1875 1.1875 -4.085938 1.125 -5.078125 L 5.21875 -5.078125 C 5.300781 -4.453125 5.609375 -3.9375 6.140625 -3.53125 C 6.671875 -3.125 7.332031 -2.921875 8.125 -2.921875 C 8.894531 -2.921875 9.492188 -3.078125 9.921875 -3.390625 C 10.359375 -3.703125 10.578125 -4.097656 10.578125 -4.578125 C 10.578125 -5.097656 10.3125 -5.488281 9.78125 -5.75 C 9.25 -6.007812 8.40625 -6.296875 7.25 -6.609375 C 6.050781 -6.898438 5.066406 -7.195312 4.296875 -7.5 C 3.535156 -7.8125 2.878906 -8.285156 2.328125 -8.921875 C 1.785156 -9.566406 1.515625 -10.429688 1.515625 -11.515625 C 1.515625 -12.398438 1.769531 -13.207031 2.28125 -13.9375 C 2.789062 -14.675781 3.523438 -15.257812 4.484375 -15.6875 C 5.441406 -16.113281 6.566406 -16.328125 7.859375 -16.328125 C 9.773438 -16.328125 11.300781 -15.847656 12.4375 -14.890625 C 13.582031 -13.929688 14.210938 -12.640625 14.328125 -11.015625 L 10.4375 -11.015625 C 10.382812 -11.660156 10.117188 -12.171875 9.640625 -12.546875 C 9.171875 -12.921875 8.539062 -13.109375 7.75 -13.109375 C 7.007812 -13.109375 6.441406 -12.972656 6.046875 -12.703125 C 5.648438 -12.429688 5.453125 -12.054688 5.453125 -11.578125 C 5.453125 -11.035156 5.722656 -10.625 6.265625 -10.34375 C 6.804688 -10.0625 7.644531 -9.773438 8.78125 -9.484375 C 9.945312 -9.191406 10.90625 -8.890625 11.65625 -8.578125 C 12.40625 -8.273438 13.054688 -7.796875 13.609375 -7.140625 C 14.160156 -6.492188 14.445312 -5.640625 14.46875 -4.578125 C 14.46875 -3.648438 14.210938 -2.816406 13.703125 -2.078125 C 13.191406 -1.347656 12.457031 -0.773438 11.5 -0.359375 C 10.539062 0.0546875 9.425781 0.265625 8.15625 0.265625 Z M 8.15625 0.265625 "/></g></g></g><g fill="#545454" fill-opacity="1"><g transform="translate(210.193257, 201.094988)"><g><path d="M 6.734375 -12.734375 L 6.734375 -4.953125 C 6.734375 -4.410156 6.863281 -4.019531 7.125 -3.78125 C 7.382812 -3.539062 7.820312 -3.421875 8.4375 -3.421875 L 10.328125 -3.421875 L 10.328125 0 L 7.765625 0 C 4.347656 0 2.640625 -1.660156 2.640625 -4.984375 L 2.640625 -12.734375 L 0.71875 -12.734375 L 0.71875 -16.0625 L 2.640625 -16.0625 L 2.640625 -20.03125 L 6.734375 -20.03125 L 6.734375 -16.0625 L 10.328125 -16.0625 L 10.328125 -12.734375 Z M 6.734375 -12.734375 "/></g></g></g><g fill="#545454" fill-opacity="1"><g transform="translate(221.442227, 201.094988)"><g><path d="M 16.9375 -8.375 C 16.9375 -7.800781 16.894531 -7.28125 16.8125 -6.8125 L 5.078125 -6.8125 C 5.171875 -5.65625 5.570312 -4.75 6.28125 -4.09375 C 7 -3.4375 7.882812 -3.109375 8.9375 -3.109375 C 10.4375 -3.109375 11.507812 -3.753906 12.15625 -5.046875 L 16.53125 -5.046875 C 16.0625 -3.492188 15.171875 -2.21875 13.859375 -1.21875 C 12.546875 -0.226562 10.929688 0.265625 9.015625 0.265625 C 7.472656 0.265625 6.085938 -0.078125 4.859375 -0.765625 C 3.628906 -1.453125 2.671875 -2.421875 1.984375 -3.671875 C 1.296875 -4.929688 0.953125 -6.382812 0.953125 -8.03125 C 0.953125 -9.695312 1.289062 -11.15625 1.96875 -12.40625 C 2.644531 -13.664062 3.59375 -14.632812 4.8125 -15.3125 C 6.03125 -15.988281 7.429688 -16.328125 9.015625 -16.328125 C 10.546875 -16.328125 11.914062 -16 13.125 -15.34375 C 14.332031 -14.6875 15.269531 -13.753906 15.9375 -12.546875 C 16.601562 -11.335938 16.9375 -9.945312 16.9375 -8.375 Z M 12.734375 -9.546875 C 12.710938 -10.585938 12.332031 -11.421875 11.59375 -12.046875 C 10.863281 -12.671875 9.96875 -12.984375 8.90625 -12.984375 C 7.894531 -12.984375 7.046875 -12.679688 6.359375 -12.078125 C 5.679688 -11.472656 5.265625 -10.628906 5.109375 -9.546875 Z M 12.734375 -9.546875 "/></g></g></g><g fill="#545454" fill-opacity="1"><g transform="translate(239.330394, 201.094988)"><g><path d="M 10.90625 -16.296875 C 12.820312 -16.296875 14.367188 -15.691406 15.546875 -14.484375 C 16.722656 -13.273438 17.3125 -11.585938 17.3125 -9.421875 L 17.3125 0 L 13.25 0 L 13.25 -8.875 C 13.25 -10.144531 12.929688 -11.125 12.296875 -11.8125 C 11.660156 -12.5 10.789062 -12.84375 9.6875 -12.84375 C 8.5625 -12.84375 7.675781 -12.5 7.03125 -11.8125 C 6.382812 -11.125 6.0625 -10.144531 6.0625 -8.875 L 6.0625 0 L 2 0 L 2 -16.0625 L 6.0625 -16.0625 L 6.0625 -14.0625 C 6.601562 -14.757812 7.289062 -15.304688 8.125 -15.703125 C 8.96875 -16.097656 9.894531 -16.296875 10.90625 -16.296875 Z M 10.90625 -16.296875 "/></g></g></g><g fill="#545454" fill-opacity="1"><g transform="translate(258.494233, 201.094988)"><g><path d="M 6.734375 -12.734375 L 6.734375 -4.953125 C 6.734375 -4.410156 6.863281 -4.019531 7.125 -3.78125 C 7.382812 -3.539062 7.820312 -3.421875 8.4375 -3.421875 L 10.328125 -3.421875 L 10.328125 0 L 7.765625 0 C 4.347656 0 2.640625 -1.660156 2.640625 -4.984375 L 2.640625 -12.734375 L 0.71875 -12.734375 L 0.71875 -16.0625 L 2.640625 -16.0625 L 2.640625 -20.03125 L 6.734375 -20.03125 L 6.734375 -16.0625 L 10.328125 -16.0625 L 10.328125 -12.734375 Z M 6.734375 -12.734375 "/></g></g></g><g fill="#545454" fill-opacity="1"><g transform="translate(269.743203, 201.094988)"><g><path d="M 0.953125 -8.09375 C 0.953125 -9.71875 1.273438 -11.15625 1.921875 -12.40625 C 2.578125 -13.664062 3.457031 -14.632812 4.5625 -15.3125 C 5.675781 -15.988281 6.921875 -16.328125 8.296875 -16.328125 C 9.492188 -16.328125 10.539062 -16.082031 11.4375 -15.59375 C 12.332031 -15.113281 13.050781 -14.507812 13.59375 -13.78125 L 13.59375 -16.0625 L 17.6875 -16.0625 L 17.6875 0 L 13.59375 0 L 13.59375 -2.34375 C 13.070312 -1.59375 12.351562 -0.96875 11.4375 -0.46875 C 10.519531 0.0195312 9.460938 0.265625 8.265625 0.265625 C 6.910156 0.265625 5.675781 -0.0820312 4.5625 -0.78125 C 3.457031 -1.476562 2.578125 -2.457031 1.921875 -3.71875 C 1.273438 -4.988281 0.953125 -6.445312 0.953125 -8.09375 Z M 13.59375 -8.03125 C 13.59375 -9.019531 13.398438 -9.863281 13.015625 -10.5625 C 12.628906 -11.269531 12.109375 -11.8125 11.453125 -12.1875 C 10.796875 -12.570312 10.09375 -12.765625 9.34375 -12.765625 C 8.582031 -12.765625 7.882812 -12.578125 7.25 -12.203125 C 6.613281 -11.835938 6.097656 -11.300781 5.703125 -10.59375 C 5.304688 -9.894531 5.109375 -9.0625 5.109375 -8.09375 C 5.109375 -7.125 5.304688 -6.273438 5.703125 -5.546875 C 6.097656 -4.828125 6.617188 -4.273438 7.265625 -3.890625 C 7.910156 -3.503906 8.601562 -3.3125 9.34375 -3.3125 C 10.09375 -3.3125 10.796875 -3.5 11.453125 -3.875 C 12.109375 -4.25 12.628906 -4.785156 13.015625 -5.484375 C 13.398438 -6.191406 13.59375 -7.039062 13.59375 -8.03125 Z M 13.59375 -8.03125 "/></g></g></g><g fill="#545454" fill-opacity="1"><g transform="translate(289.399894, 201.094988)"><g><path d="M 6.0625 -13.71875 C 6.582031 -14.488281 7.300781 -15.113281 8.21875 -15.59375 C 9.132812 -16.082031 10.1875 -16.328125 11.375 -16.328125 C 12.738281 -16.328125 13.976562 -15.988281 15.09375 -15.3125 C 16.207031 -14.632812 17.085938 -13.671875 17.734375 -12.421875 C 18.378906 -11.179688 18.703125 -9.738281 18.703125 -8.09375 C 18.703125 -6.445312 18.378906 -4.988281 17.734375 -3.71875 C 17.085938 -2.457031 16.207031 -1.476562 15.09375 -0.78125 C 13.976562 -0.0820312 12.738281 0.265625 11.375 0.265625 C 10.164062 0.265625 9.113281 0.03125 8.21875 -0.4375 C 7.320312 -0.914062 6.601562 -1.535156 6.0625 -2.296875 L 6.0625 0 L 2 0 L 2 -21.453125 L 6.0625 -21.453125 Z M 14.5625 -8.09375 C 14.5625 -9.0625 14.363281 -9.894531 13.96875 -10.59375 C 13.570312 -11.300781 13.046875 -11.835938 12.390625 -12.203125 C 11.742188 -12.578125 11.046875 -12.765625 10.296875 -12.765625 C 9.554688 -12.765625 8.863281 -12.570312 8.21875 -12.1875 C 7.570312 -11.8125 7.050781 -11.265625 6.65625 -10.546875 C 6.257812 -9.835938 6.0625 -9 6.0625 -8.03125 C 6.0625 -7.0625 6.257812 -6.21875 6.65625 -5.5 C 7.050781 -4.789062 7.570312 -4.25 8.21875 -3.875 C 8.863281 -3.5 9.554688 -3.3125 10.296875 -3.3125 C 11.046875 -3.3125 11.742188 -3.503906 12.390625 -3.890625 C 13.046875 -4.273438 13.570312 -4.820312 13.96875 -5.53125 C 14.363281 -6.25 14.5625 -7.101562 14.5625 -8.09375 Z M 14.5625 -8.09375 "/></g></g></g><g fill="#545454" fill-opacity="1"><g transform="translate(309.056585, 201.094988)"><g><path d="M 6.0625 -21.453125 L 6.0625 0 L 2 0 L 2 -21.453125 Z M 6.0625 -21.453125 "/></g></g></g><g fill="#545454" fill-opacity="1"><g transform="translate(317.116406, 201.094988)"><g><path d="M 16.9375 -8.375 C 16.9375 -7.800781 16.894531 -7.28125 16.8125 -6.8125 L 5.078125 -6.8125 C 5.171875 -5.65625 5.570312 -4.75 6.28125 -4.09375 C 7 -3.4375 7.882812 -3.109375 8.9375 -3.109375 C 10.4375 -3.109375 11.507812 -3.753906 12.15625 -5.046875 L 16.53125 -5.046875 C 16.0625 -3.492188 15.171875 -2.21875 13.859375 -1.21875 C 12.546875 -0.226562 10.929688 0.265625 9.015625 0.265625 C 7.472656 0.265625 6.085938 -0.078125 4.859375 -0.765625 C 3.628906 -1.453125 2.671875 -2.421875 1.984375 -3.671875 C 1.296875 -4.929688 0.953125 -6.382812 0.953125 -8.03125 C 0.953125 -9.695312 1.289062 -11.15625 1.96875 -12.40625 C 2.644531 -13.664062 3.59375 -14.632812 4.8125 -15.3125 C 6.03125 -15.988281 7.429688 -16.328125 9.015625 -16.328125 C 10.546875 -16.328125 11.914062 -16 13.125 -15.34375 C 14.332031 -14.6875 15.269531 -13.753906 15.9375 -12.546875 C 16.601562 -11.335938 16.9375 -9.945312 16.9375 -8.375 Z M 12.734375 -9.546875 C 12.710938 -10.585938 12.332031 -11.421875 11.59375 -12.046875 C 10.863281 -12.671875 9.96875 -12.984375 8.90625 -12.984375 C 7.894531 -12.984375 7.046875 -12.679688 6.359375 -12.078125 C 5.679688 -11.472656 5.265625 -10.628906 5.109375 -9.546875 Z M 12.734375 -9.546875 "/></g></g></g><g fill="#545454" fill-opacity="1"><g transform="translate(335.004573, 201.094988)"><g/></g></g><g fill="#545454" fill-opacity="1"><g transform="translate(341.904719, 201.094988)"><g><path d="M 17.375 -16.0625 L 7.421875 7.59375 L 3.109375 7.59375 L 6.578125 -0.40625 L 0.140625 -16.0625 L 4.703125 -16.0625 L 8.84375 -4.84375 L 13.046875 -16.0625 Z M 17.375 -16.0625 "/></g></g></g><g fill="#545454" fill-opacity="1"><g transform="translate(0.0000045, 241.594986)"><g><path d="M 11.390625 0.203125 C 9.503906 0.203125 7.765625 -0.238281 6.171875 -1.125 C 4.585938 -2.019531 3.332031 -3.253906 2.40625 -4.828125 C 1.476562 -6.398438 1.015625 -8.179688 1.015625 -10.171875 C 1.015625 -12.148438 1.476562 -13.925781 2.40625 -15.5 C 3.332031 -17.070312 4.585938 -18.300781 6.171875 -19.1875 C 7.765625 -20.082031 9.503906 -20.53125 11.390625 -20.53125 C 13.304688 -20.53125 15.050781 -20.082031 16.625 -19.1875 C 18.207031 -18.300781 19.457031 -17.070312 20.375 -15.5 C 21.289062 -13.925781 21.75 -12.148438 21.75 -10.171875 C 21.75 -8.179688 21.289062 -6.398438 20.375 -4.828125 C 19.457031 -3.253906 18.203125 -2.019531 16.609375 -1.125 C 15.023438 -0.238281 13.285156 0.203125 11.390625 0.203125 Z M 11.390625 -3.421875 C 12.609375 -3.421875 13.679688 -3.695312 14.609375 -4.25 C 15.546875 -4.800781 16.273438 -5.585938 16.796875 -6.609375 C 17.316406 -7.640625 17.578125 -8.828125 17.578125 -10.171875 C 17.578125 -11.523438 17.316406 -12.707031 16.796875 -13.71875 C 16.273438 -14.738281 15.546875 -15.519531 14.609375 -16.0625 C 13.679688 -16.601562 12.609375 -16.875 11.390625 -16.875 C 10.171875 -16.875 9.09375 -16.601562 8.15625 -16.0625 C 7.21875 -15.519531 6.488281 -14.738281 5.96875 -13.71875 C 5.445312 -12.707031 5.1875 -11.523438 5.1875 -10.171875 C 5.1875 -8.828125 5.445312 -7.640625 5.96875 -6.609375 C 6.488281 -5.585938 7.21875 -4.800781 8.15625 -4.25 C 9.09375 -3.695312 10.171875 -3.421875 11.390625 -3.421875 Z M 11.390625 -3.421875 "/></g></g></g><g fill="#545454" fill-opacity="1"><g transform="translate(22.758857, 241.594986)"><g><path d="M 6.0625 -13.578125 C 6.582031 -14.421875 7.257812 -15.082031 8.09375 -15.5625 C 8.9375 -16.050781 9.898438 -16.296875 10.984375 -16.296875 L 10.984375 -12.03125 L 9.921875 -12.03125 C 8.640625 -12.03125 7.675781 -11.726562 7.03125 -11.125 C 6.382812 -10.53125 6.0625 -9.488281 6.0625 -8 L 6.0625 0 L 2 0 L 2 -16.0625 L 6.0625 -16.0625 Z M 6.0625 -13.578125 "/></g></g></g><g fill="#545454" fill-opacity="1"><g transform="translate(34.471701, 241.594986)"><g><path d="M 0.953125 -8.09375 C 0.953125 -9.71875 1.273438 -11.15625 1.921875 -12.40625 C 2.578125 -13.664062 3.460938 -14.632812 4.578125 -15.3125 C 5.703125 -15.988281 6.953125 -16.328125 8.328125 -16.328125 C 9.367188 -16.328125 10.363281 -16.097656 11.3125 -15.640625 C 12.257812 -15.191406 13.015625 -14.585938 13.578125 -13.828125 L 13.578125 -21.453125 L 17.6875 -21.453125 L 17.6875 0 L 13.578125 0 L 13.578125 -2.375 C 13.066406 -1.582031 12.359375 -0.941406 11.453125 -0.453125 C 10.546875 0.0234375 9.492188 0.265625 8.296875 0.265625 C 6.941406 0.265625 5.703125 -0.0820312 4.578125 -0.78125 C 3.460938 -1.476562 2.578125 -2.457031 1.921875 -3.71875 C 1.273438 -4.988281 0.953125 -6.445312 0.953125 -8.09375 Z M 13.59375 -8.03125 C 13.59375 -9.019531 13.398438 -9.863281 13.015625 -10.5625 C 12.628906 -11.269531 12.109375 -11.8125 11.453125 -12.1875 C 10.796875 -12.570312 10.09375 -12.765625 9.34375 -12.765625 C 8.582031 -12.765625 7.882812 -12.578125 7.25 -12.203125 C 6.613281 -11.835938 6.097656 -11.300781 5.703125 -10.59375 C 5.304688 -9.894531 5.109375 -9.0625 5.109375 -8.09375 C 5.109375 -7.125 5.304688 -6.273438 5.703125 -5.546875 C 6.097656 -4.828125 6.617188 -4.273438 7.265625 -3.890625 C 7.910156 -3.503906 8.601562 -3.3125 9.34375 -3.3125 C 10.09375 -3.3125 10.796875 -3.5 11.453125 -3.875 C 12.109375 -4.25 12.628906 -4.785156 13.015625 -5.484375 C 13.398438 -6.191406 13.59375 -7.039062 13.59375 -8.03125 Z M 13.59375 -8.03125 "/></g></g></g><g fill="#545454" fill-opacity="1"><g transform="translate(54.128392, 241.594986)"><g><path d="M 16.9375 -8.375 C 16.9375 -7.800781 16.894531 -7.28125 16.8125 -6.8125 L 5.078125 -6.8125 C 5.171875 -5.65625 5.570312 -4.75 6.28125 -4.09375 C 7 -3.4375 7.882812 -3.109375 8.9375 -3.109375 C 10.4375 -3.109375 11.507812 -3.753906 12.15625 -5.046875 L 16.53125 -5.046875 C 16.0625 -3.492188 15.171875 -2.21875 13.859375 -1.21875 C 12.546875 -0.226562 10.929688 0.265625 9.015625 0.265625 C 7.472656 0.265625 6.085938 -0.078125 4.859375 -0.765625 C 3.628906 -1.453125 2.671875 -2.421875 1.984375 -3.671875 C 1.296875 -4.929688 0.953125 -6.382812 0.953125 -8.03125 C 0.953125 -9.695312 1.289062 -11.15625 1.96875 -12.40625 C 2.644531 -13.664062 3.59375 -14.632812 4.8125 -15.3125 C 6.03125 -15.988281 7.429688 -16.328125 9.015625 -16.328125 C 10.546875 -16.328125 11.914062 -16 13.125 -15.34375 C 14.332031 -14.6875 15.269531 -13.753906 15.9375 -12.546875 C 16.601562 -11.335938 16.9375 -9.945312 16.9375 -8.375 Z M 12.734375 -9.546875 C 12.710938 -10.585938 12.332031 -11.421875 11.59375 -12.046875 C 10.863281 -12.671875 9.96875 -12.984375 8.90625 -12.984375 C 7.894531 -12.984375 7.046875 -12.679688 6.359375 -12.078125 C 5.679688 -11.472656 5.265625 -10.628906 5.109375 -9.546875 Z M 12.734375 -9.546875 "/></g></g></g><g fill="#545454" fill-opacity="1"><g transform="translate(72.016559, 241.594986)"><g><path d="M 10.90625 -16.296875 C 12.820312 -16.296875 14.367188 -15.691406 15.546875 -14.484375 C 16.722656 -13.273438 17.3125 -11.585938 17.3125 -9.421875 L 17.3125 0 L 13.25 0 L 13.25 -8.875 C 13.25 -10.144531 12.929688 -11.125 12.296875 -11.8125 C 11.660156 -12.5 10.789062 -12.84375 9.6875 -12.84375 C 8.5625 -12.84375 7.675781 -12.5 7.03125 -11.8125 C 6.382812 -11.125 6.0625 -10.144531 6.0625 -8.875 L 6.0625 0 L 2 0 L 2 -16.0625 L 6.0625 -16.0625 L 6.0625 -14.0625 C 6.601562 -14.757812 7.289062 -15.304688 8.125 -15.703125 C 8.96875 -16.097656 9.894531 -16.296875 10.90625 -16.296875 Z M 10.90625 -16.296875 "/></g></g></g><g fill="#545454" fill-opacity="1"><g transform="translate(91.180388, 241.594986)"><g><path d="M 0.953125 -8.09375 C 0.953125 -9.71875 1.273438 -11.15625 1.921875 -12.40625 C 2.578125 -13.664062 3.457031 -14.632812 4.5625 -15.3125 C 5.675781 -15.988281 6.921875 -16.328125 8.296875 -16.328125 C 9.492188 -16.328125 10.539062 -16.082031 11.4375 -15.59375 C 12.332031 -15.113281 13.050781 -14.507812 13.59375 -13.78125 L 13.59375 -16.0625 L 17.6875 -16.0625 L 17.6875 0 L 13.59375 0 L 13.59375 -2.34375 C 13.070312 -1.59375 12.351562 -0.96875 11.4375 -0.46875 C 10.519531 0.0195312 9.460938 0.265625 8.265625 0.265625 C 6.910156 0.265625 5.675781 -0.0820312 4.5625 -0.78125 C 3.457031 -1.476562 2.578125 -2.457031 1.921875 -3.71875 C 1.273438 -4.988281 0.953125 -6.445312 0.953125 -8.09375 Z M 13.59375 -8.03125 C 13.59375 -9.019531 13.398438 -9.863281 13.015625 -10.5625 C 12.628906 -11.269531 12.109375 -11.8125 11.453125 -12.1875 C 10.796875 -12.570312 10.09375 -12.765625 9.34375 -12.765625 C 8.582031 -12.765625 7.882812 -12.578125 7.25 -12.203125 C 6.613281 -11.835938 6.097656 -11.300781 5.703125 -10.59375 C 5.304688 -9.894531 5.109375 -9.0625 5.109375 -8.09375 C 5.109375 -7.125 5.304688 -6.273438 5.703125 -5.546875 C 6.097656 -4.828125 6.617188 -4.273438 7.265625 -3.890625 C 7.910156 -3.503906 8.601562 -3.3125 9.34375 -3.3125 C 10.09375 -3.3125 10.796875 -3.5 11.453125 -3.875 C 12.109375 -4.25 12.628906 -4.785156 13.015625 -5.484375 C 13.398438 -6.191406 13.59375 -7.039062 13.59375 -8.03125 Z M 13.59375 -8.03125 "/></g></g></g><g fill="#545454" fill-opacity="1"><g transform="translate(110.837079, 241.594986)"><g><path d="M 21.953125 -16.296875 C 23.921875 -16.296875 25.507812 -15.691406 26.71875 -14.484375 C 27.925781 -13.273438 28.53125 -11.585938 28.53125 -9.421875 L 28.53125 0 L 24.46875 0 L 24.46875 -8.875 C 24.46875 -10.132812 24.148438 -11.097656 23.515625 -11.765625 C 22.878906 -12.429688 22.007812 -12.765625 20.90625 -12.765625 C 19.800781 -12.765625 18.925781 -12.429688 18.28125 -11.765625 C 17.632812 -11.097656 17.3125 -10.132812 17.3125 -8.875 L 17.3125 0 L 13.25 0 L 13.25 -8.875 C 13.25 -10.132812 12.929688 -11.097656 12.296875 -11.765625 C 11.660156 -12.429688 10.789062 -12.765625 9.6875 -12.765625 C 8.5625 -12.765625 7.675781 -12.429688 7.03125 -11.765625 C 6.382812 -11.097656 6.0625 -10.132812 6.0625 -8.875 L 6.0625 0 L 2 0 L 2 -16.0625 L 6.0625 -16.0625 L 6.0625 -14.125 C 6.582031 -14.800781 7.253906 -15.332031 8.078125 -15.71875 C 8.898438 -16.101562 9.800781 -16.296875 10.78125 -16.296875 C 12.039062 -16.296875 13.160156 -16.03125 14.140625 -15.5 C 15.128906 -14.96875 15.894531 -14.207031 16.4375 -13.21875 C 16.957031 -14.144531 17.71875 -14.890625 18.71875 -15.453125 C 19.71875 -16.015625 20.796875 -16.296875 21.953125 -16.296875 Z M 21.953125 -16.296875 "/></g></g></g><g fill="#545454" fill-opacity="1"><g transform="translate(141.220877, 241.594986)"><g><path d="M 4.0625 -17.984375 C 3.34375 -17.984375 2.742188 -18.207031 2.265625 -18.65625 C 1.796875 -19.113281 1.5625 -19.679688 1.5625 -20.359375 C 1.5625 -21.035156 1.796875 -21.597656 2.265625 -22.046875 C 2.742188 -22.503906 3.34375 -22.734375 4.0625 -22.734375 C 4.78125 -22.734375 5.375 -22.503906 5.84375 -22.046875 C 6.3125 -21.597656 6.546875 -21.035156 6.546875 -20.359375 C 6.546875 -19.679688 6.3125 -19.113281 5.84375 -18.65625 C 5.375 -18.207031 4.78125 -17.984375 4.0625 -17.984375 Z M 6.0625 -16.0625 L 6.0625 0 L 2 0 L 2 -16.0625 Z M 6.0625 -16.0625 "/></g></g></g><g fill="#545454" fill-opacity="1"><g transform="translate(149.280699, 241.594986)"><g><path d="M 16.9375 -8.375 C 16.9375 -7.800781 16.894531 -7.28125 16.8125 -6.8125 L 5.078125 -6.8125 C 5.171875 -5.65625 5.570312 -4.75 6.28125 -4.09375 C 7 -3.4375 7.882812 -3.109375 8.9375 -3.109375 C 10.4375 -3.109375 11.507812 -3.753906 12.15625 -5.046875 L 16.53125 -5.046875 C 16.0625 -3.492188 15.171875 -2.21875 13.859375 -1.21875 C 12.546875 -0.226562 10.929688 0.265625 9.015625 0.265625 C 7.472656 0.265625 6.085938 -0.078125 4.859375 -0.765625 C 3.628906 -1.453125 2.671875 -2.421875 1.984375 -3.671875 C 1.296875 -4.929688 0.953125 -6.382812 0.953125 -8.03125 C 0.953125 -9.695312 1.289062 -11.15625 1.96875 -12.40625 C 2.644531 -13.664062 3.59375 -14.632812 4.8125 -15.3125 C 6.03125 -15.988281 7.429688 -16.328125 9.015625 -16.328125 C 10.546875 -16.328125 11.914062 -16 13.125 -15.34375 C 14.332031 -14.6875 15.269531 -13.753906 15.9375 -12.546875 C 16.601562 -11.335938 16.9375 -9.945312 16.9375 -8.375 Z M 12.734375 -9.546875 C 12.710938 -10.585938 12.332031 -11.421875 11.59375 -12.046875 C 10.863281 -12.671875 9.96875 -12.984375 8.90625 -12.984375 C 7.894531 -12.984375 7.046875 -12.679688 6.359375 -12.078125 C 5.679688 -11.472656 5.265625 -10.628906 5.109375 -9.546875 Z M 12.734375 -9.546875 "/></g></g></g><g fill="#545454" fill-opacity="1"><g transform="translate(167.168866, 241.594986)"><g><path d="M 10.90625 -16.296875 C 12.820312 -16.296875 14.367188 -15.691406 15.546875 -14.484375 C 16.722656 -13.273438 17.3125 -11.585938 17.3125 -9.421875 L 17.3125 0 L 13.25 0 L 13.25 -8.875 C 13.25 -10.144531 12.929688 -11.125 12.296875 -11.8125 C 11.660156 -12.5 10.789062 -12.84375 9.6875 -12.84375 C 8.5625 -12.84375 7.675781 -12.5 7.03125 -11.8125 C 6.382812 -11.125 6.0625 -10.144531 6.0625 -8.875 L 6.0625 0 L 2 0 L 2 -16.0625 L 6.0625 -16.0625 L 6.0625 -14.0625 C 6.601562 -14.757812 7.289062 -15.304688 8.125 -15.703125 C 8.96875 -16.097656 9.894531 -16.296875 10.90625 -16.296875 Z M 10.90625 -16.296875 "/></g></g></g><g fill="#545454" fill-opacity="1"><g transform="translate(186.332694, 241.594986)"><g><path d="M 6.734375 -12.734375 L 6.734375 -4.953125 C 6.734375 -4.410156 6.863281 -4.019531 7.125 -3.78125 C 7.382812 -3.539062 7.820312 -3.421875 8.4375 -3.421875 L 10.328125 -3.421875 L 10.328125 0 L 7.765625 0 C 4.347656 0 2.640625 -1.660156 2.640625 -4.984375 L 2.640625 -12.734375 L 0.71875 -12.734375 L 0.71875 -16.0625 L 2.640625 -16.0625 L 2.640625 -20.03125 L 6.734375 -20.03125 L 6.734375 -16.0625 L 10.328125 -16.0625 L 10.328125 -12.734375 Z M 6.734375 -12.734375 "/></g></g></g><g fill="#545454" fill-opacity="1"><g transform="translate(197.581664, 241.594986)"><g><path d="M 9.140625 0.265625 C 7.585938 0.265625 6.191406 -0.078125 4.953125 -0.765625 C 3.722656 -1.453125 2.753906 -2.421875 2.046875 -3.671875 C 1.335938 -4.929688 0.984375 -6.382812 0.984375 -8.03125 C 0.984375 -9.675781 1.34375 -11.125 2.0625 -12.375 C 2.789062 -13.632812 3.785156 -14.609375 5.046875 -15.296875 C 6.304688 -15.984375 7.707031 -16.328125 9.25 -16.328125 C 10.800781 -16.328125 12.203125 -15.984375 13.453125 -15.296875 C 14.710938 -14.609375 15.703125 -13.632812 16.421875 -12.375 C 17.148438 -11.125 17.515625 -9.675781 17.515625 -8.03125 C 17.515625 -6.382812 17.140625 -4.929688 16.390625 -3.671875 C 15.648438 -2.421875 14.644531 -1.453125 13.375 -0.765625 C 12.113281 -0.078125 10.703125 0.265625 9.140625 0.265625 Z M 9.140625 -3.28125 C 9.867188 -3.28125 10.554688 -3.457031 11.203125 -3.8125 C 11.859375 -4.164062 12.378906 -4.703125 12.765625 -5.421875 C 13.148438 -6.140625 13.34375 -7.007812 13.34375 -8.03125 C 13.34375 -9.5625 12.941406 -10.734375 12.140625 -11.546875 C 11.335938 -12.367188 10.351562 -12.78125 9.1875 -12.78125 C 8.03125 -12.78125 7.0625 -12.367188 6.28125 -11.546875 C 5.5 -10.734375 5.109375 -9.5625 5.109375 -8.03125 C 5.109375 -6.5 5.488281 -5.320312 6.25 -4.5 C 7.007812 -3.6875 7.972656 -3.28125 9.140625 -3.28125 Z M 9.140625 -3.28125 "/></g></g></g><g fill="#545454" fill-opacity="1"><g transform="translate(216.078679, 241.594986)"><g/></g></g><g fill="#545454" fill-opacity="1"><g transform="translate(222.978825, 241.594986)"><g><path d="M 15.78125 -20.234375 L 15.78125 -16.96875 L 10.375 -16.96875 L 10.375 0 L 6.328125 0 L 6.328125 -16.96875 L 0.921875 -16.96875 L 0.921875 -20.234375 Z M 15.78125 -20.234375 "/></g></g></g><g fill="#545454" fill-opacity="1"><g transform="translate(239.707294, 241.594986)"><g><path d="M 16.9375 -8.375 C 16.9375 -7.800781 16.894531 -7.28125 16.8125 -6.8125 L 5.078125 -6.8125 C 5.171875 -5.65625 5.570312 -4.75 6.28125 -4.09375 C 7 -3.4375 7.882812 -3.109375 8.9375 -3.109375 C 10.4375 -3.109375 11.507812 -3.753906 12.15625 -5.046875 L 16.53125 -5.046875 C 16.0625 -3.492188 15.171875 -2.21875 13.859375 -1.21875 C 12.546875 -0.226562 10.929688 0.265625 9.015625 0.265625 C 7.472656 0.265625 6.085938 -0.078125 4.859375 -0.765625 C 3.628906 -1.453125 2.671875 -2.421875 1.984375 -3.671875 C 1.296875 -4.929688 0.953125 -6.382812 0.953125 -8.03125 C 0.953125 -9.695312 1.289062 -11.15625 1.96875 -12.40625 C 2.644531 -13.664062 3.59375 -14.632812 4.8125 -15.3125 C 6.03125 -15.988281 7.429688 -16.328125 9.015625 -16.328125 C 10.546875 -16.328125 11.914062 -16 13.125 -15.34375 C 14.332031 -14.6875 15.269531 -13.753906 15.9375 -12.546875 C 16.601562 -11.335938 16.9375 -9.945312 16.9375 -8.375 Z M 12.734375 -9.546875 C 12.710938 -10.585938 12.332031 -11.421875 11.59375 -12.046875 C 10.863281 -12.671875 9.96875 -12.984375 8.90625 -12.984375 C 7.894531 -12.984375 7.046875 -12.679688 6.359375 -12.078125 C 5.679688 -11.472656 5.265625 -10.628906 5.109375 -9.546875 Z M 12.734375 -9.546875 "/></g></g></g><g fill="#545454" fill-opacity="1"><g transform="translate(257.595461, 241.594986)"><g><path d="M 6.0625 -13.578125 C 6.582031 -14.421875 7.257812 -15.082031 8.09375 -15.5625 C 8.9375 -16.050781 9.898438 -16.296875 10.984375 -16.296875 L 10.984375 -12.03125 L 9.921875 -12.03125 C 8.640625 -12.03125 7.675781 -11.726562 7.03125 -11.125 C 6.382812 -10.53125 6.0625 -9.488281 6.0625 -8 L 6.0625 0 L 2 0 L 2 -16.0625 L 6.0625 -16.0625 Z M 6.0625 -13.578125 "/></g></g></g><g fill="#545454" fill-opacity="1"><g transform="translate(269.308305, 241.594986)"><g><path d="M 6.0625 -13.578125 C 6.582031 -14.421875 7.257812 -15.082031 8.09375 -15.5625 C 8.9375 -16.050781 9.898438 -16.296875 10.984375 -16.296875 L 10.984375 -12.03125 L 9.921875 -12.03125 C 8.640625 -12.03125 7.675781 -11.726562 7.03125 -11.125 C 6.382812 -10.53125 6.0625 -9.488281 6.0625 -8 L 6.0625 0 L 2 0 L 2 -16.0625 L 6.0625 -16.0625 Z M 6.0625 -13.578125 "/></g></g></g><g fill="#545454" fill-opacity="1"><g transform="translate(281.021149, 241.594986)"><g><path d="M 4.0625 -17.984375 C 3.34375 -17.984375 2.742188 -18.207031 2.265625 -18.65625 C 1.796875 -19.113281 1.5625 -19.679688 1.5625 -20.359375 C 1.5625 -21.035156 1.796875 -21.597656 2.265625 -22.046875 C 2.742188 -22.503906 3.34375 -22.734375 4.0625 -22.734375 C 4.78125 -22.734375 5.375 -22.503906 5.84375 -22.046875 C 6.3125 -21.597656 6.546875 -21.035156 6.546875 -20.359375 C 6.546875 -19.679688 6.3125 -19.113281 5.84375 -18.65625 C 5.375 -18.207031 4.78125 -17.984375 4.0625 -17.984375 Z M 6.0625 -16.0625 L 6.0625 0 L 2 0 L 2 -16.0625 Z M 6.0625 -16.0625 "/></g></g></g><g fill="#545454" fill-opacity="1"><g transform="translate(289.08097, 241.594986)"><g><path d="M 6.734375 -12.734375 L 6.734375 -4.953125 C 6.734375 -4.410156 6.863281 -4.019531 7.125 -3.78125 C 7.382812 -3.539062 7.820312 -3.421875 8.4375 -3.421875 L 10.328125 -3.421875 L 10.328125 0 L 7.765625 0 C 4.347656 0 2.640625 -1.660156 2.640625 -4.984375 L 2.640625 -12.734375 L 0.71875 -12.734375 L 0.71875 -16.0625 L 2.640625 -16.0625 L 2.640625 -20.03125 L 6.734375 -20.03125 L 6.734375 -16.0625 L 10.328125 -16.0625 L 10.328125 -12.734375 Z M 6.734375 -12.734375 "/></g></g></g><g fill="#545454" fill-opacity="1"><g transform="translate(300.32994, 241.594986)"><g><path d="M 9.140625 0.265625 C 7.585938 0.265625 6.191406 -0.078125 4.953125 -0.765625 C 3.722656 -1.453125 2.753906 -2.421875 2.046875 -3.671875 C 1.335938 -4.929688 0.984375 -6.382812 0.984375 -8.03125 C 0.984375 -9.675781 1.34375 -11.125 2.0625 -12.375 C 2.789062 -13.632812 3.785156 -14.609375 5.046875 -15.296875 C 6.304688 -15.984375 7.707031 -16.328125 9.25 -16.328125 C 10.800781 -16.328125 12.203125 -15.984375 13.453125 -15.296875 C 14.710938 -14.609375 15.703125 -13.632812 16.421875 -12.375 C 17.148438 -11.125 17.515625 -9.675781 17.515625 -8.03125 C 17.515625 -6.382812 17.140625 -4.929688 16.390625 -3.671875 C 15.648438 -2.421875 14.644531 -1.453125 13.375 -0.765625 C 12.113281 -0.078125 10.703125 0.265625 9.140625 0.265625 Z M 9.140625 -3.28125 C 9.867188 -3.28125 10.554688 -3.457031 11.203125 -3.8125 C 11.859375 -4.164062 12.378906 -4.703125 12.765625 -5.421875 C 13.148438 -6.140625 13.34375 -7.007812 13.34375 -8.03125 C 13.34375 -9.5625 12.941406 -10.734375 12.140625 -11.546875 C 11.335938 -12.367188 10.351562 -12.78125 9.1875 -12.78125 C 8.03125 -12.78125 7.0625 -12.367188 6.28125 -11.546875 C 5.5 -10.734375 5.109375 -9.5625 5.109375 -8.03125 C 5.109375 -6.5 5.488281 -5.320312 6.25 -4.5 C 7.007812 -3.6875 7.972656 -3.28125 9.140625 -3.28125 Z M 9.140625 -3.28125 "/></g></g></g><g fill="#545454" fill-opacity="1"><g transform="translate(318.826933, 241.594986)"><g><path d="M 6.0625 -13.578125 C 6.582031 -14.421875 7.257812 -15.082031 8.09375 -15.5625 C 8.9375 -16.050781 9.898438 -16.296875 10.984375 -16.296875 L 10.984375 -12.03125 L 9.921875 -12.03125 C 8.640625 -12.03125 7.675781 -11.726562 7.03125 -11.125 C 6.382812 -10.53125 6.0625 -9.488281 6.0625 -8 L 6.0625 0 L 2 0 L 2 -16.0625 L 6.0625 -16.0625 Z M 6.0625 -13.578125 "/></g></g></g><g fill="#545454" fill-opacity="1"><g transform="translate(330.539777, 241.594986)"><g><path d="M 4.0625 -17.984375 C 3.34375 -17.984375 2.742188 -18.207031 2.265625 -18.65625 C 1.796875 -19.113281 1.5625 -19.679688 1.5625 -20.359375 C 1.5625 -21.035156 1.796875 -21.597656 2.265625 -22.046875 C 2.742188 -22.503906 3.34375 -22.734375 4.0625 -22.734375 C 4.78125 -22.734375 5.375 -22.503906 5.84375 -22.046875 C 6.3125 -21.597656 6.546875 -21.035156 6.546875 -20.359375 C 6.546875 -19.679688 6.3125 -19.113281 5.84375 -18.65625 C 5.375 -18.207031 4.78125 -17.984375 4.0625 -17.984375 Z M 6.0625 -16.0625 L 6.0625 0 L 2 0 L 2 -16.0625 Z M 6.0625 -16.0625 "/></g></g></g><g fill="#545454" fill-opacity="1"><g transform="translate(338.599598, 241.594986)"><g><path d="M 0.953125 -8.09375 C 0.953125 -9.71875 1.273438 -11.15625 1.921875 -12.40625 C 2.578125 -13.664062 3.457031 -14.632812 4.5625 -15.3125 C 5.675781 -15.988281 6.921875 -16.328125 8.296875 -16.328125 C 9.492188 -16.328125 10.539062 -16.082031 11.4375 -15.59375 C 12.332031 -15.113281 13.050781 -14.507812 13.59375 -13.78125 L 13.59375 -16.0625 L 17.6875 -16.0625 L 17.6875 0 L 13.59375 0 L 13.59375 -2.34375 C 13.070312 -1.59375 12.351562 -0.96875 11.4375 -0.46875 C 10.519531 0.0195312 9.460938 0.265625 8.265625 0.265625 C 6.910156 0.265625 5.675781 -0.0820312 4.5625 -0.78125 C 3.457031 -1.476562 2.578125 -2.457031 1.921875 -3.71875 C 1.273438 -4.988281 0.953125 -6.445312 0.953125 -8.09375 Z M 13.59375 -8.03125 C 13.59375 -9.019531 13.398438 -9.863281 13.015625 -10.5625 C 12.628906 -11.269531 12.109375 -11.8125 11.453125 -12.1875 C 10.796875 -12.570312 10.09375 -12.765625 9.34375 -12.765625 C 8.582031 -12.765625 7.882812 -12.578125 7.25 -12.203125 C 6.613281 -11.835938 6.097656 -11.300781 5.703125 -10.59375 C 5.304688 -9.894531 5.109375 -9.0625 5.109375 -8.09375 C 5.109375 -7.125 5.304688 -6.273438 5.703125 -5.546875 C 6.097656 -4.828125 6.617188 -4.273438 7.265625 -3.890625 C 7.910156 -3.503906 8.601562 -3.3125 9.34375 -3.3125 C 10.09375 -3.3125 10.796875 -3.5 11.453125 -3.875 C 12.109375 -4.25 12.628906 -4.785156 13.015625 -5.484375 C 13.398438 -6.191406 13.59375 -7.039062 13.59375 -8.03125 Z M 13.59375 -8.03125 "/></g></g></g><g fill="#545454" fill-opacity="1"><g transform="translate(358.256289, 241.594986)"><g><path d="M 6.0625 -21.453125 L 6.0625 0 L 2 0 L 2 -21.453125 Z M 6.0625 -21.453125 "/></g></g></g><g fill="#545454" fill-opacity="1"><g transform="translate(0.0000045, 276.094983)"><g><path d="M 12.984375 -11.421875 C 12.609375 -12.109375 12.09375 -12.628906 11.4375 -12.984375 C 10.789062 -13.347656 10.03125 -13.53125 9.15625 -13.53125 C 8.1875 -13.53125 7.328125 -13.3125 6.578125 -12.875 C 5.828125 -12.4375 5.238281 -11.8125 4.8125 -11 C 4.394531 -10.1875 4.1875 -9.25 4.1875 -8.1875 C 4.1875 -7.09375 4.398438 -6.140625 4.828125 -5.328125 C 5.265625 -4.523438 5.863281 -3.90625 6.625 -3.46875 C 7.382812 -3.03125 8.273438 -2.8125 9.296875 -2.8125 C 10.546875 -2.8125 11.566406 -3.140625 12.359375 -3.796875 C 13.148438 -4.460938 13.671875 -5.390625 13.921875 -6.578125 L 8.3125 -6.578125 L 8.3125 -9.078125 L 17.15625 -9.078125 L 17.15625 -6.21875 C 16.9375 -5.082031 16.46875 -4.03125 15.75 -3.0625 C 15.03125 -2.09375 14.101562 -1.316406 12.96875 -0.734375 C 11.84375 -0.148438 10.578125 0.140625 9.171875 0.140625 C 7.597656 0.140625 6.175781 -0.210938 4.90625 -0.921875 C 3.632812 -1.628906 2.632812 -2.613281 1.90625 -3.875 C 1.175781 -5.144531 0.8125 -6.582031 0.8125 -8.1875 C 0.8125 -9.800781 1.175781 -11.242188 1.90625 -12.515625 C 2.632812 -13.785156 3.632812 -14.773438 4.90625 -15.484375 C 6.175781 -16.191406 7.59375 -16.546875 9.15625 -16.546875 C 10.988281 -16.546875 12.582031 -16.097656 13.9375 -15.203125 C 15.300781 -14.304688 16.242188 -13.046875 16.765625 -11.421875 Z M 12.984375 -11.421875 "/></g></g></g><g fill="#545454" fill-opacity="1"><g transform="translate(17.964023, 276.094983)"><g><path d="M 7.375 0.203125 C 6.125 0.203125 5 -0.0703125 4 -0.625 C 3 -1.175781 2.210938 -1.957031 1.640625 -2.96875 C 1.078125 -3.988281 0.796875 -5.160156 0.796875 -6.484375 C 0.796875 -7.804688 1.085938 -8.972656 1.671875 -9.984375 C 2.253906 -11.003906 3.050781 -11.789062 4.0625 -12.34375 C 5.082031 -12.894531 6.21875 -13.171875 7.46875 -13.171875 C 8.71875 -13.171875 9.847656 -12.894531 10.859375 -12.34375 C 11.867188 -11.789062 12.664062 -11.003906 13.25 -9.984375 C 13.84375 -8.972656 14.140625 -7.804688 14.140625 -6.484375 C 14.140625 -5.160156 13.835938 -3.988281 13.234375 -2.96875 C 12.628906 -1.957031 11.816406 -1.175781 10.796875 -0.625 C 9.773438 -0.0703125 8.632812 0.203125 7.375 0.203125 Z M 7.375 -2.640625 C 7.96875 -2.640625 8.523438 -2.785156 9.046875 -3.078125 C 9.566406 -3.367188 9.984375 -3.800781 10.296875 -4.375 C 10.609375 -4.957031 10.765625 -5.660156 10.765625 -6.484375 C 10.765625 -7.710938 10.441406 -8.660156 9.796875 -9.328125 C 9.148438 -9.992188 8.359375 -10.328125 7.421875 -10.328125 C 6.484375 -10.328125 5.695312 -9.992188 5.0625 -9.328125 C 4.4375 -8.660156 4.125 -7.710938 4.125 -6.484375 C 4.125 -5.253906 4.429688 -4.304688 5.046875 -3.640625 C 5.660156 -2.972656 6.4375 -2.640625 7.375 -2.640625 Z M 7.375 -2.640625 "/></g></g></g><g fill="#545454" fill-opacity="1"><g transform="translate(32.887255, 276.094983)"><g><path d="M 4.890625 -11.078125 C 5.316406 -11.691406 5.898438 -12.191406 6.640625 -12.578125 C 7.378906 -12.972656 8.222656 -13.171875 9.171875 -13.171875 C 10.285156 -13.171875 11.289062 -12.898438 12.1875 -12.359375 C 13.082031 -11.816406 13.789062 -11.039062 14.3125 -10.03125 C 14.832031 -9.019531 15.09375 -7.851562 15.09375 -6.53125 C 15.09375 -5.207031 14.832031 -4.03125 14.3125 -3 C 13.789062 -1.976562 13.082031 -1.1875 12.1875 -0.625 C 11.289062 -0.0703125 10.285156 0.203125 9.171875 0.203125 C 8.203125 0.203125 7.351562 0.015625 6.625 -0.359375 C 5.90625 -0.742188 5.328125 -1.238281 4.890625 -1.84375 L 4.890625 0 L 1.609375 0 L 1.609375 -17.328125 L 4.890625 -17.328125 Z M 11.75 -6.53125 C 11.75 -7.3125 11.585938 -7.984375 11.265625 -8.546875 C 10.953125 -9.117188 10.53125 -9.550781 10 -9.84375 C 9.476562 -10.144531 8.914062 -10.296875 8.3125 -10.296875 C 7.71875 -10.296875 7.160156 -10.144531 6.640625 -9.84375 C 6.117188 -9.539062 5.695312 -9.097656 5.375 -8.515625 C 5.050781 -7.941406 4.890625 -7.265625 4.890625 -6.484375 C 4.890625 -5.703125 5.050781 -5.019531 5.375 -4.4375 C 5.695312 -3.863281 6.117188 -3.425781 6.640625 -3.125 C 7.160156 -2.820312 7.71875 -2.671875 8.3125 -2.671875 C 8.914062 -2.671875 9.476562 -2.828125 10 -3.140625 C 10.53125 -3.453125 10.953125 -3.894531 11.265625 -4.46875 C 11.585938 -5.050781 11.75 -5.738281 11.75 -6.53125 Z M 11.75 -6.53125 "/></g></g></g><g fill="#545454" fill-opacity="1"><g transform="translate(48.74611, 276.094983)"><g><path d="M 3.28125 -14.515625 C 2.695312 -14.515625 2.210938 -14.695312 1.828125 -15.0625 C 1.453125 -15.425781 1.265625 -15.882812 1.265625 -16.4375 C 1.265625 -16.976562 1.453125 -17.429688 1.828125 -17.796875 C 2.210938 -18.160156 2.695312 -18.34375 3.28125 -18.34375 C 3.851562 -18.34375 4.332031 -18.160156 4.71875 -17.796875 C 5.101562 -17.429688 5.296875 -16.976562 5.296875 -16.4375 C 5.296875 -15.882812 5.101562 -15.425781 4.71875 -15.0625 C 4.332031 -14.695312 3.851562 -14.515625 3.28125 -14.515625 Z M 4.890625 -12.96875 L 4.890625 0 L 1.609375 0 L 1.609375 -12.96875 Z M 4.890625 -12.96875 "/></g></g></g><g fill="#545454" fill-opacity="1"><g transform="translate(55.248711, 276.094983)"><g><path d="M 13.671875 -6.765625 C 13.671875 -6.296875 13.640625 -5.875 13.578125 -5.5 L 4.09375 -5.5 C 4.175781 -4.5625 4.503906 -3.828125 5.078125 -3.296875 C 5.648438 -2.765625 6.359375 -2.5 7.203125 -2.5 C 8.421875 -2.5 9.289062 -3.023438 9.8125 -4.078125 L 13.34375 -4.078125 C 12.96875 -2.828125 12.25 -1.800781 11.1875 -1 C 10.125 -0.195312 8.820312 0.203125 7.28125 0.203125 C 6.03125 0.203125 4.910156 -0.0703125 3.921875 -0.625 C 2.929688 -1.175781 2.15625 -1.957031 1.59375 -2.96875 C 1.039062 -3.988281 0.765625 -5.160156 0.765625 -6.484375 C 0.765625 -7.828125 1.035156 -9.003906 1.578125 -10.015625 C 2.128906 -11.035156 2.894531 -11.816406 3.875 -12.359375 C 4.863281 -12.898438 6 -13.171875 7.28125 -13.171875 C 8.507812 -13.171875 9.609375 -12.90625 10.578125 -12.375 C 11.554688 -11.851562 12.316406 -11.101562 12.859375 -10.125 C 13.398438 -9.144531 13.671875 -8.023438 13.671875 -6.765625 Z M 10.28125 -7.703125 C 10.257812 -8.546875 9.953125 -9.21875 9.359375 -9.71875 C 8.765625 -10.226562 8.039062 -10.484375 7.1875 -10.484375 C 6.375 -10.484375 5.691406 -10.238281 5.140625 -9.75 C 4.585938 -9.257812 4.25 -8.578125 4.125 -7.703125 Z M 10.28125 -7.703125 "/></g></g></g><g fill="#545454" fill-opacity="1"><g transform="translate(69.68074, 276.094983)"><g><path d="M 4.890625 -10.953125 C 5.316406 -11.640625 5.867188 -12.175781 6.546875 -12.5625 C 7.222656 -12.957031 8 -13.15625 8.875 -13.15625 L 8.875 -9.71875 L 8 -9.71875 C 6.96875 -9.71875 6.191406 -9.472656 5.671875 -8.984375 C 5.148438 -8.503906 4.890625 -7.660156 4.890625 -6.453125 L 4.890625 0 L 1.609375 0 L 1.609375 -12.96875 L 4.890625 -12.96875 Z M 4.890625 -10.953125 "/></g></g></g><g fill="#545454" fill-opacity="1"><g transform="translate(79.130561, 276.094983)"><g><path d="M 8.796875 -13.15625 C 10.347656 -13.15625 11.597656 -12.664062 12.546875 -11.6875 C 13.492188 -10.71875 13.96875 -9.359375 13.96875 -7.609375 L 13.96875 0 L 10.703125 0 L 10.703125 -7.15625 C 10.703125 -8.1875 10.441406 -8.976562 9.921875 -9.53125 C 9.410156 -10.09375 8.707031 -10.375 7.8125 -10.375 C 6.90625 -10.375 6.191406 -10.09375 5.671875 -9.53125 C 5.148438 -8.976562 4.890625 -8.1875 4.890625 -7.15625 L 4.890625 0 L 1.609375 0 L 1.609375 -12.96875 L 4.890625 -12.96875 L 4.890625 -11.359375 C 5.328125 -11.910156 5.882812 -12.347656 6.5625 -12.671875 C 7.238281 -12.992188 7.984375 -13.15625 8.796875 -13.15625 Z M 8.796875 -13.15625 "/></g></g></g><g fill="#545454" fill-opacity="1"><g transform="translate(94.59178, 276.094983)"><g><path d="M 7.375 0.203125 C 6.125 0.203125 5 -0.0703125 4 -0.625 C 3 -1.175781 2.210938 -1.957031 1.640625 -2.96875 C 1.078125 -3.988281 0.796875 -5.160156 0.796875 -6.484375 C 0.796875 -7.804688 1.085938 -8.972656 1.671875 -9.984375 C 2.253906 -11.003906 3.050781 -11.789062 4.0625 -12.34375 C 5.082031 -12.894531 6.21875 -13.171875 7.46875 -13.171875 C 8.71875 -13.171875 9.847656 -12.894531 10.859375 -12.34375 C 11.867188 -11.789062 12.664062 -11.003906 13.25 -9.984375 C 13.84375 -8.972656 14.140625 -7.804688 14.140625 -6.484375 C 14.140625 -5.160156 13.835938 -3.988281 13.234375 -2.96875 C 12.628906 -1.957031 11.816406 -1.175781 10.796875 -0.625 C 9.773438 -0.0703125 8.632812 0.203125 7.375 0.203125 Z M 7.375 -2.640625 C 7.96875 -2.640625 8.523438 -2.785156 9.046875 -3.078125 C 9.566406 -3.367188 9.984375 -3.800781 10.296875 -4.375 C 10.609375 -4.957031 10.765625 -5.660156 10.765625 -6.484375 C 10.765625 -7.710938 10.441406 -8.660156 9.796875 -9.328125 C 9.148438 -9.992188 8.359375 -10.328125 7.421875 -10.328125 C 6.484375 -10.328125 5.695312 -9.992188 5.0625 -9.328125 C 4.4375 -8.660156 4.125 -7.710938 4.125 -6.484375 C 4.125 -5.253906 4.429688 -4.304688 5.046875 -3.640625 C 5.660156 -2.972656 6.4375 -2.640625 7.375 -2.640625 Z M 7.375 -2.640625 "/></g></g></g><g fill="#545454" fill-opacity="1"><g transform="translate(109.515012, 276.094983)"><g/></g></g><g fill="#545454" fill-opacity="1"><g transform="translate(115.08199, 276.094983)"><g><path d="M 0.765625 -6.53125 C 0.765625 -7.84375 1.023438 -9.003906 1.546875 -10.015625 C 2.078125 -11.035156 2.796875 -11.816406 3.703125 -12.359375 C 4.609375 -12.898438 5.613281 -13.171875 6.71875 -13.171875 C 7.5625 -13.171875 8.363281 -12.988281 9.125 -12.625 C 9.894531 -12.257812 10.503906 -11.773438 10.953125 -11.171875 L 10.953125 -17.328125 L 14.28125 -17.328125 L 14.28125 0 L 10.953125 0 L 10.953125 -1.921875 C 10.546875 -1.273438 9.972656 -0.757812 9.234375 -0.375 C 8.503906 0.0078125 7.65625 0.203125 6.6875 0.203125 C 5.601562 0.203125 4.609375 -0.0703125 3.703125 -0.625 C 2.796875 -1.1875 2.078125 -1.976562 1.546875 -3 C 1.023438 -4.03125 0.765625 -5.207031 0.765625 -6.53125 Z M 10.984375 -6.484375 C 10.984375 -7.273438 10.828125 -7.957031 10.515625 -8.53125 C 10.203125 -9.101562 9.78125 -9.539062 9.25 -9.84375 C 8.71875 -10.144531 8.144531 -10.296875 7.53125 -10.296875 C 6.925781 -10.296875 6.363281 -10.144531 5.84375 -9.84375 C 5.332031 -9.550781 4.914062 -9.117188 4.59375 -8.546875 C 4.28125 -7.984375 4.125 -7.3125 4.125 -6.53125 C 4.125 -5.75 4.28125 -5.066406 4.59375 -4.484375 C 4.914062 -3.898438 5.335938 -3.453125 5.859375 -3.140625 C 6.378906 -2.828125 6.9375 -2.671875 7.53125 -2.671875 C 8.144531 -2.671875 8.71875 -2.820312 9.25 -3.125 C 9.78125 -3.425781 10.203125 -3.863281 10.515625 -4.4375 C 10.828125 -5.007812 10.984375 -5.691406 10.984375 -6.484375 Z M 10.984375 -6.484375 "/></g></g></g><g fill="#545454" fill-opacity="1"><g transform="translate(130.940845, 276.094983)"><g><path d="M 13.671875 -6.765625 C 13.671875 -6.296875 13.640625 -5.875 13.578125 -5.5 L 4.09375 -5.5 C 4.175781 -4.5625 4.503906 -3.828125 5.078125 -3.296875 C 5.648438 -2.765625 6.359375 -2.5 7.203125 -2.5 C 8.421875 -2.5 9.289062 -3.023438 9.8125 -4.078125 L 13.34375 -4.078125 C 12.96875 -2.828125 12.25 -1.800781 11.1875 -1 C 10.125 -0.195312 8.820312 0.203125 7.28125 0.203125 C 6.03125 0.203125 4.910156 -0.0703125 3.921875 -0.625 C 2.929688 -1.175781 2.15625 -1.957031 1.59375 -2.96875 C 1.039062 -3.988281 0.765625 -5.160156 0.765625 -6.484375 C 0.765625 -7.828125 1.035156 -9.003906 1.578125 -10.015625 C 2.128906 -11.035156 2.894531 -11.816406 3.875 -12.359375 C 4.863281 -12.898438 6 -13.171875 7.28125 -13.171875 C 8.507812 -13.171875 9.609375 -12.90625 10.578125 -12.375 C 11.554688 -11.851562 12.316406 -11.101562 12.859375 -10.125 C 13.398438 -9.144531 13.671875 -8.023438 13.671875 -6.765625 Z M 10.28125 -7.703125 C 10.257812 -8.546875 9.953125 -9.21875 9.359375 -9.71875 C 8.765625 -10.226562 8.039062 -10.484375 7.1875 -10.484375 C 6.375 -10.484375 5.691406 -10.238281 5.140625 -9.75 C 4.585938 -9.257812 4.25 -8.578125 4.125 -7.703125 Z M 10.28125 -7.703125 "/></g></g></g><g fill="#545454" fill-opacity="1"><g transform="translate(145.372874, 276.094983)"><g><path d="M 4.890625 -17.328125 L 4.890625 0 L 1.609375 0 L 1.609375 -17.328125 Z M 4.890625 -17.328125 "/></g></g></g><g fill="#545454" fill-opacity="1"><g transform="translate(151.875475, 276.094983)"><g/></g></g><g fill="#545454" fill-opacity="1"><g transform="translate(157.442453, 276.094983)"><g><path d="M 4.890625 -13.6875 L 4.890625 -9.59375 L 10.390625 -9.59375 L 10.390625 -7 L 4.890625 -7 L 4.890625 -2.671875 L 11.09375 -2.671875 L 11.09375 0 L 1.609375 0 L 1.609375 -16.359375 L 11.09375 -16.359375 L 11.09375 -13.6875 Z M 4.890625 -13.6875 "/></g></g></g><g fill="#545454" fill-opacity="1"><g transform="translate(169.886277, 276.094983)"><g><path d="M 6.578125 0.203125 C 5.515625 0.203125 4.5625 0.015625 3.71875 -0.359375 C 2.875 -0.742188 2.207031 -1.265625 1.71875 -1.921875 C 1.226562 -2.578125 0.957031 -3.300781 0.90625 -4.09375 L 4.21875 -4.09375 C 4.28125 -3.59375 4.523438 -3.175781 4.953125 -2.84375 C 5.378906 -2.519531 5.910156 -2.359375 6.546875 -2.359375 C 7.171875 -2.359375 7.660156 -2.484375 8.015625 -2.734375 C 8.367188 -2.984375 8.546875 -3.304688 8.546875 -3.703125 C 8.546875 -4.117188 8.328125 -4.429688 7.890625 -4.640625 C 7.460938 -4.859375 6.785156 -5.09375 5.859375 -5.34375 C 4.890625 -5.570312 4.09375 -5.8125 3.46875 -6.0625 C 2.851562 -6.3125 2.320312 -6.691406 1.875 -7.203125 C 1.4375 -7.722656 1.21875 -8.421875 1.21875 -9.296875 C 1.21875 -10.015625 1.421875 -10.664062 1.828125 -11.25 C 2.242188 -11.84375 2.835938 -12.3125 3.609375 -12.65625 C 4.390625 -13 5.300781 -13.171875 6.34375 -13.171875 C 7.882812 -13.171875 9.113281 -12.785156 10.03125 -12.015625 C 10.957031 -11.242188 11.46875 -10.203125 11.5625 -8.890625 L 8.421875 -8.890625 C 8.378906 -9.410156 8.164062 -9.820312 7.78125 -10.125 C 7.394531 -10.425781 6.882812 -10.578125 6.25 -10.578125 C 5.65625 -10.578125 5.195312 -10.46875 4.875 -10.25 C 4.5625 -10.03125 4.40625 -9.726562 4.40625 -9.34375 C 4.40625 -8.90625 4.625 -8.570312 5.0625 -8.34375 C 5.5 -8.113281 6.175781 -7.882812 7.09375 -7.65625 C 8.03125 -7.414062 8.800781 -7.171875 9.40625 -6.921875 C 10.019531 -6.671875 10.546875 -6.285156 10.984375 -5.765625 C 11.429688 -5.242188 11.664062 -4.554688 11.6875 -3.703125 C 11.6875 -2.953125 11.476562 -2.28125 11.0625 -1.6875 C 10.644531 -1.09375 10.050781 -0.628906 9.28125 -0.296875 C 8.507812 0.0351562 7.609375 0.203125 6.578125 0.203125 Z M 6.578125 0.203125 "/></g></g></g><g fill="#545454" fill-opacity="1"><g transform="translate(182.634182, 276.094983)"><g><path d="M 5.4375 -10.28125 L 5.4375 -4 C 5.4375 -3.5625 5.539062 -3.242188 5.75 -3.046875 C 5.957031 -2.859375 6.3125 -2.765625 6.8125 -2.765625 L 8.328125 -2.765625 L 8.328125 0 L 6.265625 0 C 3.503906 0 2.125 -1.34375 2.125 -4.03125 L 2.125 -10.28125 L 0.578125 -10.28125 L 0.578125 -12.96875 L 2.125 -12.96875 L 2.125 -16.171875 L 5.4375 -16.171875 L 5.4375 -12.96875 L 8.328125 -12.96875 L 8.328125 -10.28125 Z M 5.4375 -10.28125 "/></g></g></g><g fill="#545454" fill-opacity="1"><g transform="translate(191.709759, 276.094983)"><g><path d="M 0.765625 -6.53125 C 0.765625 -7.84375 1.023438 -9.003906 1.546875 -10.015625 C 2.078125 -11.035156 2.789062 -11.816406 3.6875 -12.359375 C 4.582031 -12.898438 5.582031 -13.171875 6.6875 -13.171875 C 7.65625 -13.171875 8.503906 -12.972656 9.234375 -12.578125 C 9.960938 -12.191406 10.546875 -11.707031 10.984375 -11.125 L 10.984375 -12.96875 L 14.28125 -12.96875 L 14.28125 0 L 10.984375 0 L 10.984375 -1.890625 C 10.554688 -1.285156 9.972656 -0.785156 9.234375 -0.390625 C 8.492188 0.00390625 7.640625 0.203125 6.671875 0.203125 C 5.578125 0.203125 4.582031 -0.0703125 3.6875 -0.625 C 2.789062 -1.1875 2.078125 -1.976562 1.546875 -3 C 1.023438 -4.03125 0.765625 -5.207031 0.765625 -6.53125 Z M 10.984375 -6.484375 C 10.984375 -7.273438 10.828125 -7.957031 10.515625 -8.53125 C 10.203125 -9.101562 9.78125 -9.539062 9.25 -9.84375 C 8.71875 -10.144531 8.144531 -10.296875 7.53125 -10.296875 C 6.925781 -10.296875 6.363281 -10.144531 5.84375 -9.84375 C 5.332031 -9.550781 4.914062 -9.117188 4.59375 -8.546875 C 4.28125 -7.984375 4.125 -7.3125 4.125 -6.53125 C 4.125 -5.75 4.28125 -5.066406 4.59375 -4.484375 C 4.914062 -3.898438 5.335938 -3.453125 5.859375 -3.140625 C 6.378906 -2.828125 6.9375 -2.671875 7.53125 -2.671875 C 8.144531 -2.671875 8.71875 -2.820312 9.25 -3.125 C 9.78125 -3.425781 10.203125 -3.863281 10.515625 -4.4375 C 10.828125 -5.007812 10.984375 -5.691406 10.984375 -6.484375 Z M 10.984375 -6.484375 "/></g></g></g><g fill="#545454" fill-opacity="1"><g transform="translate(207.568625, 276.094983)"><g><path d="M 0.765625 -6.53125 C 0.765625 -7.84375 1.023438 -9.003906 1.546875 -10.015625 C 2.078125 -11.035156 2.796875 -11.816406 3.703125 -12.359375 C 4.609375 -12.898438 5.613281 -13.171875 6.71875 -13.171875 C 7.5625 -13.171875 8.363281 -12.988281 9.125 -12.625 C 9.894531 -12.257812 10.503906 -11.773438 10.953125 -11.171875 L 10.953125 -17.328125 L 14.28125 -17.328125 L 14.28125 0 L 10.953125 0 L 10.953125 -1.921875 C 10.546875 -1.273438 9.972656 -0.757812 9.234375 -0.375 C 8.503906 0.0078125 7.65625 0.203125 6.6875 0.203125 C 5.601562 0.203125 4.609375 -0.0703125 3.703125 -0.625 C 2.796875 -1.1875 2.078125 -1.976562 1.546875 -3 C 1.023438 -4.03125 0.765625 -5.207031 0.765625 -6.53125 Z M 10.984375 -6.484375 C 10.984375 -7.273438 10.828125 -7.957031 10.515625 -8.53125 C 10.203125 -9.101562 9.78125 -9.539062 9.25 -9.84375 C 8.71875 -10.144531 8.144531 -10.296875 7.53125 -10.296875 C 6.925781 -10.296875 6.363281 -10.144531 5.84375 -9.84375 C 5.332031 -9.550781 4.914062 -9.117188 4.59375 -8.546875 C 4.28125 -7.984375 4.125 -7.3125 4.125 -6.53125 C 4.125 -5.75 4.28125 -5.066406 4.59375 -4.484375 C 4.914062 -3.898438 5.335938 -3.453125 5.859375 -3.140625 C 6.378906 -2.828125 6.9375 -2.671875 7.53125 -2.671875 C 8.144531 -2.671875 8.71875 -2.820312 9.25 -3.125 C 9.78125 -3.425781 10.203125 -3.863281 10.515625 -4.4375 C 10.828125 -5.007812 10.984375 -5.691406 10.984375 -6.484375 Z M 10.984375 -6.484375 "/></g></g></g><g fill="#545454" fill-opacity="1"><g transform="translate(223.427481, 276.094983)"><g><path d="M 7.375 0.203125 C 6.125 0.203125 5 -0.0703125 4 -0.625 C 3 -1.175781 2.210938 -1.957031 1.640625 -2.96875 C 1.078125 -3.988281 0.796875 -5.160156 0.796875 -6.484375 C 0.796875 -7.804688 1.085938 -8.972656 1.671875 -9.984375 C 2.253906 -11.003906 3.050781 -11.789062 4.0625 -12.34375 C 5.082031 -12.894531 6.21875 -13.171875 7.46875 -13.171875 C 8.71875 -13.171875 9.847656 -12.894531 10.859375 -12.34375 C 11.867188 -11.789062 12.664062 -11.003906 13.25 -9.984375 C 13.84375 -8.972656 14.140625 -7.804688 14.140625 -6.484375 C 14.140625 -5.160156 13.835938 -3.988281 13.234375 -2.96875 C 12.628906 -1.957031 11.816406 -1.175781 10.796875 -0.625 C 9.773438 -0.0703125 8.632812 0.203125 7.375 0.203125 Z M 7.375 -2.640625 C 7.96875 -2.640625 8.523438 -2.785156 9.046875 -3.078125 C 9.566406 -3.367188 9.984375 -3.800781 10.296875 -4.375 C 10.609375 -4.957031 10.765625 -5.660156 10.765625 -6.484375 C 10.765625 -7.710938 10.441406 -8.660156 9.796875 -9.328125 C 9.148438 -9.992188 8.359375 -10.328125 7.421875 -10.328125 C 6.484375 -10.328125 5.695312 -9.992188 5.0625 -9.328125 C 4.4375 -8.660156 4.125 -7.710938 4.125 -6.484375 C 4.125 -5.253906 4.429688 -4.304688 5.046875 -3.640625 C 5.660156 -2.972656 6.4375 -2.640625 7.375 -2.640625 Z M 7.375 -2.640625 "/></g></g></g><g fill="#545454" fill-opacity="1"><g transform="translate(238.350713, 276.094983)"><g/></g></g><g fill="#545454" fill-opacity="1"><g transform="translate(243.917691, 276.094983)"><g><path d="M 0.765625 -6.53125 C 0.765625 -7.84375 1.023438 -9.003906 1.546875 -10.015625 C 2.078125 -11.035156 2.796875 -11.816406 3.703125 -12.359375 C 4.609375 -12.898438 5.613281 -13.171875 6.71875 -13.171875 C 7.5625 -13.171875 8.363281 -12.988281 9.125 -12.625 C 9.894531 -12.257812 10.503906 -11.773438 10.953125 -11.171875 L 10.953125 -17.328125 L 14.28125 -17.328125 L 14.28125 0 L 10.953125 0 L 10.953125 -1.921875 C 10.546875 -1.273438 9.972656 -0.757812 9.234375 -0.375 C 8.503906 0.0078125 7.65625 0.203125 6.6875 0.203125 C 5.601562 0.203125 4.609375 -0.0703125 3.703125 -0.625 C 2.796875 -1.1875 2.078125 -1.976562 1.546875 -3 C 1.023438 -4.03125 0.765625 -5.207031 0.765625 -6.53125 Z M 10.984375 -6.484375 C 10.984375 -7.273438 10.828125 -7.957031 10.515625 -8.53125 C 10.203125 -9.101562 9.78125 -9.539062 9.25 -9.84375 C 8.71875 -10.144531 8.144531 -10.296875 7.53125 -10.296875 C 6.925781 -10.296875 6.363281 -10.144531 5.84375 -9.84375 C 5.332031 -9.550781 4.914062 -9.117188 4.59375 -8.546875 C 4.28125 -7.984375 4.125 -7.3125 4.125 -6.53125 C 4.125 -5.75 4.28125 -5.066406 4.59375 -4.484375 C 4.914062 -3.898438 5.335938 -3.453125 5.859375 -3.140625 C 6.378906 -2.828125 6.9375 -2.671875 7.53125 -2.671875 C 8.144531 -2.671875 8.71875 -2.820312 9.25 -3.125 C 9.78125 -3.425781 10.203125 -3.863281 10.515625 -4.4375 C 10.828125 -5.007812 10.984375 -5.691406 10.984375 -6.484375 Z M 10.984375 -6.484375 "/></g></g></g><g fill="#545454" fill-opacity="1"><g transform="translate(259.776546, 276.094983)"><g><path d="M 13.671875 -6.765625 C 13.671875 -6.296875 13.640625 -5.875 13.578125 -5.5 L 4.09375 -5.5 C 4.175781 -4.5625 4.503906 -3.828125 5.078125 -3.296875 C 5.648438 -2.765625 6.359375 -2.5 7.203125 -2.5 C 8.421875 -2.5 9.289062 -3.023438 9.8125 -4.078125 L 13.34375 -4.078125 C 12.96875 -2.828125 12.25 -1.800781 11.1875 -1 C 10.125 -0.195312 8.820312 0.203125 7.28125 0.203125 C 6.03125 0.203125 4.910156 -0.0703125 3.921875 -0.625 C 2.929688 -1.175781 2.15625 -1.957031 1.59375 -2.96875 C 1.039062 -3.988281 0.765625 -5.160156 0.765625 -6.484375 C 0.765625 -7.828125 1.035156 -9.003906 1.578125 -10.015625 C 2.128906 -11.035156 2.894531 -11.816406 3.875 -12.359375 C 4.863281 -12.898438 6 -13.171875 7.28125 -13.171875 C 8.507812 -13.171875 9.609375 -12.90625 10.578125 -12.375 C 11.554688 -11.851562 12.316406 -11.101562 12.859375 -10.125 C 13.398438 -9.144531 13.671875 -8.023438 13.671875 -6.765625 Z M 10.28125 -7.703125 C 10.257812 -8.546875 9.953125 -9.21875 9.359375 -9.71875 C 8.765625 -10.226562 8.039062 -10.484375 7.1875 -10.484375 C 6.375 -10.484375 5.691406 -10.238281 5.140625 -9.75 C 4.585938 -9.257812 4.25 -8.578125 4.125 -7.703125 Z M 10.28125 -7.703125 "/></g></g></g><g fill="#545454" fill-opacity="1"><g transform="translate(274.208575, 276.094983)"><g/></g></g><g fill="#545454" fill-opacity="1"><g transform="translate(279.775553, 276.094983)"><g><path d="M 13.53125 -11.28125 C 13.53125 -10.40625 13.320312 -9.582031 12.90625 -8.8125 C 12.488281 -8.050781 11.835938 -7.4375 10.953125 -6.96875 C 10.078125 -6.5 8.96875 -6.265625 7.625 -6.265625 L 4.890625 -6.265625 L 4.890625 0 L 1.609375 0 L 1.609375 -16.34375 L 7.625 -16.34375 C 8.894531 -16.34375 9.972656 -16.125 10.859375 -15.6875 C 11.742188 -15.25 12.410156 -14.644531 12.859375 -13.875 C 13.304688 -13.113281 13.53125 -12.25 13.53125 -11.28125 Z M 7.484375 -8.921875 C 8.390625 -8.921875 9.0625 -9.125 9.5 -9.53125 C 9.9375 -9.945312 10.15625 -10.53125 10.15625 -11.28125 C 10.15625 -12.875 9.265625 -13.671875 7.484375 -13.671875 L 4.890625 -13.671875 L 4.890625 -8.921875 Z M 7.484375 -8.921875 "/></g></g></g><g fill="#545454" fill-opacity="1"><g transform="translate(293.997056, 276.094983)"><g><path d="M 13.859375 -12.96875 L 13.859375 0 L 10.5625 0 L 10.5625 -1.640625 C 10.132812 -1.078125 9.582031 -0.632812 8.90625 -0.3125 C 8.226562 0 7.488281 0.15625 6.6875 0.15625 C 5.675781 0.15625 4.78125 -0.0546875 4 -0.484375 C 3.21875 -0.910156 2.601562 -1.539062 2.15625 -2.375 C 1.71875 -3.207031 1.5 -4.203125 1.5 -5.359375 L 1.5 -12.96875 L 4.78125 -12.96875 L 4.78125 -5.828125 C 4.78125 -4.796875 5.035156 -4.003906 5.546875 -3.453125 C 6.054688 -2.898438 6.757812 -2.625 7.65625 -2.625 C 8.5625 -2.625 9.269531 -2.898438 9.78125 -3.453125 C 10.300781 -4.003906 10.5625 -4.796875 10.5625 -5.828125 L 10.5625 -12.96875 Z M 13.859375 -12.96875 "/></g></g></g><g fill="#545454" fill-opacity="1"><g transform="translate(309.458275, 276.094983)"><g><path d="M 13.671875 -6.765625 C 13.671875 -6.296875 13.640625 -5.875 13.578125 -5.5 L 4.09375 -5.5 C 4.175781 -4.5625 4.503906 -3.828125 5.078125 -3.296875 C 5.648438 -2.765625 6.359375 -2.5 7.203125 -2.5 C 8.421875 -2.5 9.289062 -3.023438 9.8125 -4.078125 L 13.34375 -4.078125 C 12.96875 -2.828125 12.25 -1.800781 11.1875 -1 C 10.125 -0.195312 8.820312 0.203125 7.28125 0.203125 C 6.03125 0.203125 4.910156 -0.0703125 3.921875 -0.625 C 2.929688 -1.175781 2.15625 -1.957031 1.59375 -2.96875 C 1.039062 -3.988281 0.765625 -5.160156 0.765625 -6.484375 C 0.765625 -7.828125 1.035156 -9.003906 1.578125 -10.015625 C 2.128906 -11.035156 2.894531 -11.816406 3.875 -12.359375 C 4.863281 -12.898438 6 -13.171875 7.28125 -13.171875 C 8.507812 -13.171875 9.609375 -12.90625 10.578125 -12.375 C 11.554688 -11.851562 12.316406 -11.101562 12.859375 -10.125 C 13.398438 -9.144531 13.671875 -8.023438 13.671875 -6.765625 Z M 10.28125 -7.703125 C 10.257812 -8.546875 9.953125 -9.21875 9.359375 -9.71875 C 8.765625 -10.226562 8.039062 -10.484375 7.1875 -10.484375 C 6.375 -10.484375 5.691406 -10.238281 5.140625 -9.75 C 4.585938 -9.257812 4.25 -8.578125 4.125 -7.703125 Z M 10.28125 -7.703125 "/></g></g></g><g fill="#545454" fill-opacity="1"><g transform="translate(323.890304, 276.094983)"><g><path d="M 4.890625 -11.078125 C 5.316406 -11.691406 5.898438 -12.191406 6.640625 -12.578125 C 7.378906 -12.972656 8.222656 -13.171875 9.171875 -13.171875 C 10.285156 -13.171875 11.289062 -12.898438 12.1875 -12.359375 C 13.082031 -11.816406 13.789062 -11.039062 14.3125 -10.03125 C 14.832031 -9.019531 15.09375 -7.851562 15.09375 -6.53125 C 15.09375 -5.207031 14.832031 -4.03125 14.3125 -3 C 13.789062 -1.976562 13.082031 -1.1875 12.1875 -0.625 C 11.289062 -0.0703125 10.285156 0.203125 9.171875 0.203125 C 8.203125 0.203125 7.351562 0.015625 6.625 -0.359375 C 5.90625 -0.742188 5.328125 -1.238281 4.890625 -1.84375 L 4.890625 0 L 1.609375 0 L 1.609375 -17.328125 L 4.890625 -17.328125 Z M 11.75 -6.53125 C 11.75 -7.3125 11.585938 -7.984375 11.265625 -8.546875 C 10.953125 -9.117188 10.53125 -9.550781 10 -9.84375 C 9.476562 -10.144531 8.914062 -10.296875 8.3125 -10.296875 C 7.71875 -10.296875 7.160156 -10.144531 6.640625 -9.84375 C 6.117188 -9.539062 5.695312 -9.097656 5.375 -8.515625 C 5.050781 -7.941406 4.890625 -7.265625 4.890625 -6.484375 C 4.890625 -5.703125 5.050781 -5.019531 5.375 -4.4375 C 5.695312 -3.863281 6.117188 -3.425781 6.640625 -3.125 C 7.160156 -2.820312 7.71875 -2.671875 8.3125 -2.671875 C 8.914062 -2.671875 9.476562 -2.828125 10 -3.140625 C 10.53125 -3.453125 10.953125 -3.894531 11.265625 -4.46875 C 11.585938 -5.050781 11.75 -5.738281 11.75 -6.53125 Z M 11.75 -6.53125 "/></g></g></g><g fill="#545454" fill-opacity="1"><g transform="translate(339.749159, 276.094983)"><g><path d="M 4.890625 -17.328125 L 4.890625 0 L 1.609375 0 L 1.609375 -17.328125 Z M 4.890625 -17.328125 "/></g></g></g><g fill="#545454" fill-opacity="1"><g transform="translate(346.251761, 276.094983)"><g><path d="M 0.765625 -6.53125 C 0.765625 -7.84375 1.023438 -9.003906 1.546875 -10.015625 C 2.078125 -11.035156 2.789062 -11.816406 3.6875 -12.359375 C 4.582031 -12.898438 5.582031 -13.171875 6.6875 -13.171875 C 7.65625 -13.171875 8.503906 -12.972656 9.234375 -12.578125 C 9.960938 -12.191406 10.546875 -11.707031 10.984375 -11.125 L 10.984375 -12.96875 L 14.28125 -12.96875 L 14.28125 0 L 10.984375 0 L 10.984375 -1.890625 C 10.554688 -1.285156 9.972656 -0.785156 9.234375 -0.390625 C 8.492188 0.00390625 7.640625 0.203125 6.671875 0.203125 C 5.578125 0.203125 4.582031 -0.0703125 3.6875 -0.625 C 2.789062 -1.1875 2.078125 -1.976562 1.546875 -3 C 1.023438 -4.03125 0.765625 -5.207031 0.765625 -6.53125 Z M 10.984375 -6.484375 C 10.984375 -7.273438 10.828125 -7.957031 10.515625 -8.53125 C 10.203125 -9.101562 9.78125 -9.539062 9.25 -9.84375 C 8.71875 -10.144531 8.144531 -10.296875 7.53125 -10.296875 C 6.925781 -10.296875 6.363281 -10.144531 5.84375 -9.84375 C 5.332031 -9.550781 4.914062 -9.117188 4.59375 -8.546875 C 4.28125 -7.984375 4.125 -7.3125 4.125 -6.53125 C 4.125 -5.75 4.28125 -5.066406 4.59375 -4.484375 C 4.914062 -3.898438 5.335938 -3.453125 5.859375 -3.140625 C 6.378906 -2.828125 6.9375 -2.671875 7.53125 -2.671875 C 8.144531 -2.671875 8.71875 -2.820312 9.25 -3.125 C 9.78125 -3.425781 10.203125 -3.863281 10.515625 -4.4375 C 10.828125 -5.007812 10.984375 -5.691406 10.984375 -6.484375 Z M 10.984375 -6.484375 "/></g></g></g></svg>